<svg width="200" height="200" viewBox="0 0 200 200" fill="none" xmlns="http://www.w3.org/2000/svg">
<g clip-path="url(#clip0)">
<path d="M130.937 75.1123H68.8294C67.7632 75.1111 66.7411 74.687 65.9872 73.9332C65.2334 73.1793 64.8093 72.1572 64.8081 71.091V22.3107C64.809 21.5297 65.1196 20.7808 65.6719 20.2285C66.2242 19.6762 66.973 19.3655 67.7541 19.3646H131.961C132.756 19.3655 133.518 19.6816 134.08 20.2435C134.641 20.8053 134.957 21.5671 134.958 22.3617V71.091C134.957 72.1572 134.533 73.1793 133.779 73.9332C133.025 74.687 132.003 75.1111 130.937 75.1123Z" fill="#2A2A2A"/>
<path d="M72.7288 71.091H127.038C128.072 71.091 129.064 70.6802 129.795 69.9489C130.526 69.2176 130.937 68.2258 130.937 67.1916V29.7698C130.937 28.7357 130.526 27.7438 129.795 27.0125C129.064 26.2813 128.072 25.8704 127.038 25.8704H72.7288C71.6946 25.8704 70.7027 26.2813 69.9715 27.0125C69.2402 27.7438 68.8293 28.7357 68.8293 29.7698V67.1916C68.8293 68.2258 69.2402 69.2176 69.9715 69.9489C70.7027 70.6802 71.6946 71.091 72.7288 71.091Z" fill="#252525"/>
<path d="M134.902 22.0807H64.7517V20.0334C64.7533 18.9637 65.179 17.9383 65.9357 17.1822C66.6923 16.426 67.7179 16.0009 68.7876 16H130.867C131.936 16.0009 132.962 16.426 133.718 17.1822C134.475 17.9383 134.901 18.9637 134.902 20.0334V22.0807Z" fill="#102030"/>
<path d="M72.0863 20.0904C72.6628 20.0904 73.1302 19.623 73.1302 19.0464C73.1302 18.4699 72.6628 18.0025 72.0863 18.0025C71.5097 18.0025 71.0424 18.4699 71.0424 19.0464C71.0424 19.623 71.5097 20.0904 72.0863 20.0904Z" fill="white"/>
<path d="M76.0488 20.0904C76.6254 20.0904 77.0927 19.623 77.0927 19.0464C77.0927 18.4699 76.6254 18.0025 76.0488 18.0025C75.4723 18.0025 75.0049 18.4699 75.0049 19.0464C75.0049 19.623 75.4723 20.0904 76.0488 20.0904Z" fill="white"/>
<path d="M80.0113 20.0904C80.5879 20.0904 81.0553 19.623 81.0553 19.0464C81.0553 18.4699 80.5879 18.0025 80.0113 18.0025C79.4348 18.0025 78.9674 18.4699 78.9674 19.0464C78.9674 19.623 79.4348 20.0904 80.0113 20.0904Z" fill="white"/>
<path d="M76.7253 43.4071H74.0356C73.8898 43.4069 73.7499 43.3489 73.6468 43.2458C73.5436 43.1426 73.4856 43.0028 73.4855 42.8569V40.1673C73.4856 40.0214 73.5436 39.8816 73.6468 39.7785C73.7499 39.6753 73.8898 39.6173 74.0356 39.6171H76.7253C76.8711 39.6173 77.011 39.6753 77.1141 39.7785C77.2172 39.8816 77.2752 40.0214 77.2754 40.1673V42.8569C77.2752 43.0028 77.2172 43.1426 77.1141 43.2458C77.011 43.3489 76.8711 43.4069 76.7253 43.4071Z" fill="#008080"/>
<path d="M76.7253 50.3757H74.0356C73.8898 50.3755 73.7499 50.3175 73.6468 50.2144C73.5436 50.1113 73.4856 49.9714 73.4855 49.8256V47.1359C73.4856 46.9901 73.5436 46.8502 73.6468 46.7471C73.7499 46.644 73.8898 46.5859 74.0356 46.5858H76.7253C76.8711 46.5859 77.011 46.644 77.1141 46.7471C77.2172 46.8502 77.2752 46.9901 77.2754 47.1359V49.8256C77.2752 49.9714 77.2172 50.1113 77.1141 50.2144C77.011 50.3175 76.8711 50.3755 76.7253 50.3757Z" fill="#3F3D19"/>
<path d="M76.7253 57.3442H74.0356C73.8898 57.3441 73.7499 57.2861 73.6468 57.1829C73.5436 57.0798 73.4856 56.94 73.4855 56.7941V54.1045C73.4856 53.9586 73.5436 53.8188 73.6468 53.7156C73.7499 53.6125 73.8898 53.5545 74.0356 53.5543H76.7253C76.8711 53.5545 77.011 53.6125 77.1141 53.7156C77.2172 53.8188 77.2752 53.9586 77.2754 54.1045V56.7941C77.2752 56.94 77.2172 57.0798 77.1141 57.1829C77.011 57.2861 76.8711 57.3441 76.7253 57.3442Z" fill="#CCCCCC"/>
<path d="M94.3301 42.0623H81.371C81.2253 42.062 81.0857 42.0039 80.9827 41.9008C80.8798 41.7976 80.822 41.6579 80.822 41.5122C80.822 41.3664 80.8798 41.2267 80.9827 41.1236C81.0857 41.0204 81.2253 40.9623 81.371 40.962H94.3301C94.4025 40.9619 94.4741 40.976 94.541 41.0036C94.6079 41.0311 94.6687 41.0716 94.7199 41.1227C94.7711 41.1738 94.8117 41.2345 94.8395 41.3014C94.8672 41.3682 94.8814 41.4398 94.8814 41.5122C94.8814 41.5845 94.8672 41.6561 94.8395 41.723C94.8117 41.7898 94.7711 41.8505 94.7199 41.9016C94.6687 41.9527 94.6079 41.9932 94.541 42.0208C94.4741 42.0483 94.4025 42.0625 94.3301 42.0623Z" fill="#CCCCCC"/>
<path d="M94.3301 49.0308H81.371C81.2253 49.0305 81.0857 48.9724 80.9827 48.8693C80.8798 48.7661 80.822 48.6264 80.822 48.4807C80.822 48.335 80.8798 48.1952 80.9827 48.0921C81.0857 47.9889 81.2253 47.9308 81.371 47.9305H94.3301C94.476 47.9305 94.616 47.9885 94.7191 48.0917C94.8223 48.1948 94.8803 48.3348 94.8803 48.4807C94.8803 48.6266 94.8223 48.7665 94.7191 48.8697C94.616 48.9729 94.476 49.0308 94.3301 49.0308Z" fill="#CCCCCC"/>
<path d="M94.3301 55.9995H81.371C81.2253 55.9992 81.0857 55.9411 80.9827 55.8379C80.8798 55.7348 80.822 55.595 80.822 55.4493C80.822 55.3036 80.8798 55.1639 80.9827 55.0607C81.0857 54.9576 81.2253 54.8995 81.371 54.8992H94.3301C94.4025 54.899 94.4741 54.9131 94.541 54.9407C94.6079 54.9683 94.6687 55.0088 94.7199 55.0599C94.7711 55.111 94.8117 55.1717 94.8395 55.2385C94.8672 55.3053 94.8814 55.377 94.8814 55.4493C94.8814 55.5217 94.8672 55.5933 94.8395 55.6601C94.8117 55.7269 94.7711 55.7876 94.7199 55.8387C94.6687 55.8898 94.6079 55.9304 94.541 55.9579C94.4741 55.9855 94.4025 55.9996 94.3301 55.9995Z" fill="#CCCCCC"/>
<path d="M126.259 48.6555C126.273 48.4242 126.281 48.1913 126.281 47.9565C126.281 44.8981 125.066 41.9649 122.903 39.8022C120.741 37.6395 117.807 36.4246 114.749 36.4246V48.6555H126.259Z" fill="#008080"/>
<path d="M113.875 49.7038V37.4729C111.624 37.4728 109.422 38.1315 107.541 39.3679C105.66 40.6042 104.182 42.3641 103.289 44.4304C102.396 46.4968 102.127 48.7794 102.516 50.9966C102.905 53.2138 103.934 55.2688 105.477 56.9081C107.02 58.5474 109.008 59.6993 111.198 60.2219C113.387 60.7444 115.682 60.6147 117.799 59.8487C119.915 59.0827 121.762 57.714 123.11 55.9113C124.458 54.1086 125.249 51.9507 125.386 49.7038H113.875Z" fill="#3F3D56"/>
<path d="M192.466 184.111H7.24371C7.17908 184.111 7.11709 184.085 7.07138 184.039C7.02568 183.994 7 183.932 7 183.867C7 183.802 7.02568 183.74 7.07138 183.695C7.11709 183.649 7.17908 183.623 7.24371 183.623H192.466C192.531 183.623 192.593 183.649 192.639 183.695C192.684 183.74 192.71 183.802 192.71 183.867C192.71 183.932 192.684 183.994 192.639 184.039C192.593 184.085 192.531 184.111 192.466 184.111Z" fill="#333333"/>
<path d="M130 116.636C130.081 116.746 130.154 116.863 130.217 116.985L142.43 118.358L144.206 115.958L148.179 118.165L144.682 123.995L129.719 120.068C129.338 120.434 128.855 120.675 128.334 120.76C127.812 120.845 127.278 120.769 126.801 120.542C126.323 120.316 125.927 119.949 125.663 119.492C125.399 119.034 125.281 118.507 125.324 117.981C125.367 117.454 125.569 116.953 125.904 116.545C126.239 116.136 126.69 115.839 127.197 115.693C127.705 115.547 128.245 115.559 128.746 115.727C129.246 115.896 129.684 116.213 130 116.636Z" fill="#FFB8B8"/>
<path d="M67.6817 113.483C67.3728 113.664 67.0279 113.776 66.6712 113.81C66.3145 113.843 65.9547 113.799 65.6172 113.678C65.2797 113.558 64.9727 113.365 64.7178 113.114C64.4629 112.862 64.2662 112.557 64.1418 112.221L55.4346 112.403L57.8468 108.574L65.7454 108.988C66.3237 108.817 66.9448 108.863 67.4912 109.119C68.0375 109.374 68.4711 109.821 68.7098 110.375C68.9485 110.929 68.9756 111.552 68.7861 112.124C68.5966 112.697 68.2037 113.18 67.6817 113.483V113.483Z" fill="#FFB8B8"/>
<path d="M63.8548 112.386C63.7856 112.617 63.6425 112.819 63.4475 112.96C63.2525 113.102 63.0164 113.175 62.7755 113.17L46.8398 112.765L32.4104 108.493C32.0133 108.375 31.6436 108.18 31.3227 107.918C31.0018 107.656 30.7361 107.333 30.5411 106.968C30.3461 106.603 30.2256 106.202 30.1868 105.79C30.1479 105.378 30.1914 104.962 30.3147 104.567C30.438 104.171 30.6386 103.805 30.905 103.487C31.1713 103.17 31.498 102.909 31.8661 102.72C32.2342 102.53 32.6363 102.416 33.0491 102.383C33.4619 102.35 33.8771 102.399 34.2706 102.528L47.3069 106.803L62.9536 108.313C63.2277 108.34 63.4814 108.47 63.6649 108.675C63.8483 108.881 63.9482 109.147 63.9449 109.423L63.8996 112.092C63.8981 112.192 63.883 112.291 63.8548 112.386Z" fill="#3F3D56"/>
<path d="M40.7449 180.897L43.7326 180.897L45.1541 169.372L40.7444 169.372L40.7449 180.897Z" fill="#FFB8B8"/>
<path d="M39.9827 179.921L45.8668 179.921H45.8671C46.3595 179.921 46.8472 180.018 47.3021 180.207C47.7571 180.395 48.1705 180.671 48.5187 181.02C48.8669 181.368 49.1431 181.781 49.3316 182.236C49.52 182.691 49.617 183.179 49.617 183.671V183.793L39.9829 183.793L39.9827 179.921Z" fill="#192027"/>
<path d="M31.9712 180.897L34.9589 180.897L36.3805 169.372L31.9707 169.372L31.9712 180.897Z" fill="#FFB8B8"/>
<path d="M31.209 179.921L37.0932 179.921H37.0934C37.5859 179.921 38.0735 180.018 38.5284 180.207C38.9834 180.395 39.3968 180.671 39.745 181.02C40.0932 181.368 40.3694 181.781 40.5579 182.236C40.7463 182.691 40.8433 183.179 40.8433 183.671V183.793L31.2092 183.793L31.209 179.921Z" fill="#192027"/>
<path d="M29.9658 134.321L30.6793 176.653C30.6815 176.787 30.7114 176.919 30.7671 177.041C30.8227 177.163 30.9029 177.272 31.0027 177.362C31.1025 177.451 31.2196 177.52 31.3469 177.562C31.4741 177.604 31.6087 177.62 31.7423 177.607L35.2386 177.29C35.468 177.269 35.6825 177.167 35.8443 177.003C36.006 176.84 36.1045 176.624 36.1223 176.394L38.1692 149.989C38.174 149.927 38.2024 149.869 38.2484 149.827C38.2945 149.785 38.3548 149.763 38.417 149.764C38.4792 149.765 38.5386 149.79 38.583 149.834C38.6274 149.877 38.6534 149.936 38.6558 149.998L39.6788 177.008C39.6884 177.26 39.7952 177.499 39.9768 177.674C40.1585 177.848 40.4008 177.946 40.653 177.946H44.4027C44.6509 177.946 44.8899 177.851 45.0707 177.681C45.2515 177.511 45.3606 177.279 45.3757 177.031L48.0007 134.078L32.403 130.178L29.9658 134.321Z" fill="#192027"/>
<path d="M41.2794 94.5725C44.5854 94.5725 47.2653 91.8925 47.2653 88.5866C47.2653 85.2807 44.5854 82.6008 41.2794 82.6008C37.9735 82.6008 35.2936 85.2807 35.2936 88.5866C35.2936 91.8925 37.9735 94.5725 41.2794 94.5725Z" fill="#FFB8B8"/>
<path d="M47.7713 135.891C47.7654 135.891 47.7597 135.891 47.7538 135.891L33.7571 135.675C33.4881 135.671 33.23 135.568 33.0318 135.386C32.8337 135.204 32.7095 134.955 32.6827 134.688L32.5243 133.103C32.5213 133.073 32.5072 133.045 32.4848 133.025C32.4624 133.004 32.4332 132.993 32.403 132.993C32.3728 132.993 32.3437 133.004 32.3213 133.025C32.2989 133.045 32.2848 133.073 32.2818 133.103L32.1181 134.74C32.0927 134.996 31.9778 135.235 31.7936 135.415C31.6094 135.595 31.3677 135.704 31.1109 135.724L30.1218 135.8C29.9475 135.814 29.7724 135.785 29.6113 135.717C29.4502 135.649 29.3077 135.544 29.1957 135.409C29.0836 135.275 29.0053 135.116 28.9672 134.946C28.9292 134.775 28.9324 134.598 28.9768 134.428L29.8285 131.181C31.5909 124.432 31.7327 117.362 30.2423 110.548L29.819 108.623C29.5 107.185 29.646 105.683 30.2361 104.333C30.8261 102.983 31.8296 101.855 33.1019 101.113L35.8511 99.5013L37.0984 97.6303C37.3398 97.2692 37.6647 96.9715 38.0455 96.7627C38.4264 96.5538 38.8521 96.4399 39.2863 96.4306C41.0263 96.3925 44.011 96.7112 44.5718 99.2554C45.9615 99.7302 47.165 100.633 48.0093 101.835C48.8536 103.037 49.2954 104.475 49.2711 105.943L48.8673 134.809C48.8633 135.097 48.746 135.372 48.5409 135.575C48.3358 135.777 48.0594 135.891 47.7713 135.891Z" fill="#3F3D56"/>
<path d="M40.8112 92.037C40.7866 92.8832 40.1992 93.3727 39.4779 93.8159C38.7567 94.2591 37.9136 94.4513 37.0876 94.6367C36.9767 94.6956 36.8524 94.725 36.7269 94.7219C36.6013 94.7188 36.4786 94.6834 36.3707 94.6191C36.2628 94.5548 36.1733 94.4638 36.1108 94.3548C36.0483 94.2459 36.015 94.1227 36.014 93.9971L35.2565 91.1156C34.9885 90.1951 34.7934 89.255 34.6732 88.3038C34.4908 86.4738 34.9245 84.505 36.2019 83.1819C37.4792 81.8587 39.6945 81.3886 41.2252 82.4081C43.0417 80.088 51.345 85.214 49.2968 86.8273C48.9324 87.1144 48.3754 86.7512 47.9129 86.716C47.4504 86.6808 46.932 86.7621 46.6382 87.1211C46.2544 87.59 46.4216 88.2886 46.2634 88.8736C46.198 89.0794 46.0924 89.2703 45.9529 89.4351C45.8133 89.6 45.6425 89.7356 45.4503 89.8341C45.2581 89.9326 45.0483 89.9921 44.833 90.0091C44.6177 90.0262 44.4011 90.0004 44.1958 89.9334C43.8134 89.7449 43.4537 89.5137 43.1235 89.244C42.7687 89.0077 42.3205 88.8331 41.9211 88.9821C41.3947 89.1786 41.2077 89.823 41.1601 90.3829C41.0799 90.9413 40.9633 91.4938 40.8112 92.037Z" fill="#192027"/>
<path opacity="0.2" d="M42.2091 108.08L43.184 120.022L48.302 132.451L40.7468 120.265L42.2091 108.08Z" fill="black"/>
<path d="M105.173 173.475L51.7577 141.786C50.8414 141.241 50.1787 140.354 49.915 139.321C49.6513 138.288 49.8081 137.193 50.3511 136.275L75.2403 94.3225C75.6396 93.6512 76.2889 93.1656 77.0457 92.9724C77.8024 92.7792 78.605 92.8941 79.2772 93.2918L134.498 126.052C135.181 126.459 135.675 127.119 135.871 127.889C136.068 128.659 135.951 129.475 135.546 130.159L110.683 172.068C110.138 172.984 109.252 173.647 108.219 173.911C107.186 174.175 106.09 174.018 105.173 173.475Z" fill="#2A2A2A"/>
<path d="M57.1631 140.317L103.871 168.027C104.76 168.555 105.823 168.707 106.825 168.451C107.827 168.196 108.686 167.552 109.214 166.663L128.308 134.479C128.835 133.589 128.988 132.527 128.732 131.525C128.477 130.523 127.833 129.663 126.944 129.135L80.2361 101.425C79.3467 100.898 78.284 100.745 77.282 101.001C76.2799 101.257 75.4205 101.9 74.8929 102.789L55.7991 134.973C55.2714 135.863 55.1187 136.926 55.3745 137.928C55.6303 138.93 56.2737 139.789 57.1631 140.317Z" fill="#252525"/>
<path d="M135.641 129.889L75.3092 94.0959L76.3538 92.3351C76.9009 91.4159 77.7903 90.7513 78.8268 90.487C79.8634 90.2228 80.9624 90.3804 81.8828 90.9255L135.273 122.6C136.192 123.147 136.858 124.036 137.123 125.072C137.387 126.108 137.23 127.207 136.686 128.128L135.641 129.889Z" fill="#102030"/>
<path d="M83.1654 96.2725C83.7419 96.2725 84.2093 95.8052 84.2093 95.2286C84.2093 94.6521 83.7419 94.1847 83.1654 94.1847C82.5889 94.1847 82.1215 94.6521 82.1215 95.2286C82.1215 95.8052 82.5889 96.2725 83.1654 96.2725Z" fill="white"/>
<path d="M86.5732 98.2943C87.1498 98.2943 87.6171 97.827 87.6171 97.2504C87.6171 96.6739 87.1498 96.2065 86.5732 96.2065C85.9967 96.2065 85.5293 96.6739 85.5293 97.2504C85.5293 97.827 85.9967 98.2943 86.5732 98.2943Z" fill="white"/>
<path d="M89.9812 100.316C90.5577 100.316 91.0251 99.8488 91.0251 99.2723C91.0251 98.6957 90.5577 98.2283 89.9812 98.2283C89.4046 98.2283 88.9373 98.6957 88.9373 99.2723C88.9373 99.8488 89.4046 100.316 89.9812 100.316Z" fill="white"/>
<path d="M122.217 135.999L122.15 136.113L122.836 136.521L122.904 136.406L122.217 135.999Z" fill="#E6E6E6"/>
<path d="M120.762 135.29L119.375 134.467L119.443 134.353L120.83 135.176L120.762 135.29ZM117.988 133.644L116.6 132.821L116.668 132.707L118.056 133.53L117.988 133.644ZM115.213 131.998L113.826 131.175L113.894 131.061L115.281 131.884L115.213 131.998ZM112.439 130.352L111.051 129.529L111.119 129.415L112.507 130.238L112.439 130.352ZM109.664 128.706L108.277 127.883L108.345 127.769L109.732 128.592L109.664 128.706ZM106.89 127.06L105.502 126.237L105.57 126.123L106.957 126.946L106.89 127.06ZM104.115 125.414L102.728 124.591L102.796 124.477L104.183 125.3L104.115 125.414ZM101.34 123.768L99.9532 122.945L100.021 122.831L101.408 123.654L101.34 123.768ZM98.5659 122.122L97.1787 121.299L97.2466 121.185L98.6338 122.008L98.5659 122.122ZM95.7914 120.476L94.4041 119.653L94.472 119.539L95.8593 120.362L95.7914 120.476ZM93.0168 118.83L91.6296 118.007L91.6975 117.892L93.0847 118.716L93.0168 118.83ZM90.2423 117.184L88.855 116.361L88.9229 116.246L90.3102 117.069L90.2423 117.184ZM87.4678 115.538L86.0805 114.715L86.1484 114.6L87.5356 115.423L87.4678 115.538ZM84.6932 113.892L83.3059 113.069L83.3738 112.954L84.7611 113.777L84.6932 113.892ZM81.9187 112.246L80.5314 111.423L80.5993 111.308L81.9866 112.131L81.9187 112.246ZM79.1441 110.6L77.7568 109.777L77.8247 109.662L79.212 110.485L79.1441 110.6Z" fill="#E6E6E6"/>
<path d="M75.7508 108.432L75.6829 108.546L76.3696 108.954L76.4375 108.839L75.7508 108.432Z" fill="#E6E6E6"/>
<path d="M93.3562 133.267L93.2883 133.381L93.975 133.788L94.0429 133.674L93.3562 133.267Z" fill="#E6E6E6"/>
<path d="M91.9216 132.57L90.555 131.759L90.6229 131.645L91.9895 132.456L91.9216 132.57ZM89.1883 130.949L87.8216 130.138L87.8895 130.023L89.2562 130.834L89.1883 130.949ZM86.455 129.327L85.0883 128.516L85.1562 128.402L86.5229 129.213L86.455 129.327ZM83.7216 127.705L82.355 126.895L82.4229 126.78L83.7895 127.591L83.7216 127.705ZM80.9883 126.084L79.6216 125.273L79.6895 125.159L81.0562 125.969L80.9883 126.084ZM78.255 124.462L76.8883 123.651L76.9562 123.537L78.3229 124.348L78.255 124.462ZM75.5216 122.841L74.155 122.03L74.2229 121.915L75.5895 122.726L75.5216 122.841ZM72.7883 121.219L71.4216 120.408L71.4895 120.294L72.8562 121.105L72.7883 121.219Z" fill="#E6E6E6"/>
<path d="M69.4361 119.076L69.3682 119.19L70.0549 119.598L70.1228 119.483L69.4361 119.076Z" fill="#E6E6E6"/>
<path d="M76.9779 130.358L76.91 130.473L77.5967 130.88L77.6646 130.766L76.9779 130.358Z" fill="#E6E6E6"/>
<path d="M75.504 129.638L74.0979 128.804L74.1658 128.69L75.5719 129.524L75.504 129.638ZM72.6918 127.97L71.2857 127.136L71.3536 127.021L72.7597 127.856L72.6918 127.97ZM69.8796 126.302L68.4735 125.468L68.5414 125.353L69.9475 126.187L69.8796 126.302Z" fill="#E6E6E6"/>
<path d="M66.4486 124.111L66.3807 124.226L67.0674 124.633L67.1353 124.519L66.4486 124.111Z" fill="#E6E6E6"/>
<path d="M71.8795 138.952L71.8116 139.066L72.4983 139.474L72.5662 139.359L71.8795 138.952Z" fill="#E6E6E6"/>
<path d="M70.4056 138.232L68.9995 137.398L69.0674 137.284L70.4735 138.118L70.4056 138.232ZM67.5934 136.564L66.1873 135.73L66.2552 135.615L67.6613 136.449L67.5934 136.564ZM64.7812 134.895L63.3751 134.061L63.443 133.947L64.8491 134.781L64.7812 134.895Z" fill="#E6E6E6"/>
<path d="M61.3501 132.705L61.2822 132.82L61.9689 133.227L62.0369 133.113L61.3501 132.705Z" fill="#E6E6E6"/>
<path d="M65.1018 135.204L104.683 158.687C105.642 159.254 106.787 159.418 107.867 159.143C108.947 158.867 109.873 158.174 110.443 157.217L122.008 137.723L121.928 137.679L95.6887 144.376L93.6101 136.238C93.5722 136.087 93.4999 135.948 93.3989 135.83C93.298 135.712 93.1711 135.619 93.0283 135.558C92.8098 135.47 92.5685 135.457 92.3415 135.52L78.5908 139.029L77.0709 133.079C77.0381 132.951 76.9804 132.83 76.901 132.724C76.8216 132.618 76.722 132.528 76.6081 132.461C76.4941 132.393 76.3679 132.348 76.2367 132.33C76.1055 132.311 75.9719 132.318 75.8434 132.351C75.7506 132.375 66.8028 134.746 65.1018 135.204Z" fill="#008080"/>
<path d="M64.8652 135.219L64.8323 135.09L75.8358 132.281C76.1265 132.207 76.4346 132.251 76.6925 132.404C76.9504 132.557 77.1371 132.806 77.2116 133.097L78.7007 138.93L92.375 135.439C92.6657 135.365 92.9738 135.41 93.2317 135.563C93.4896 135.716 93.6763 135.965 93.7508 136.256L95.7985 144.277L122.175 137.544L122.208 137.673L95.7025 144.439L93.6218 136.288C93.5894 136.161 93.5323 136.042 93.4537 135.937C93.3752 135.832 93.2768 135.744 93.164 135.677C93.0513 135.61 92.9265 135.566 92.7968 135.547C92.6671 135.529 92.5349 135.536 92.4079 135.568L78.6047 139.092L77.0826 133.13C77.0169 132.873 76.8521 132.654 76.6246 132.519C76.397 132.384 76.1252 132.344 75.8687 132.41L64.8652 135.219Z" fill="#3F3D56"/>
<path d="M77.6307 131.754C78.1452 131.754 78.5623 131.337 78.5623 130.823C78.5623 130.308 78.1452 129.891 77.6307 129.891C77.1163 129.891 76.6992 130.308 76.6992 130.823C76.6992 131.337 77.1163 131.754 77.6307 131.754Z" fill="#3F3D56"/>
<path d="M94.0089 134.663C94.5234 134.663 94.9404 134.246 94.9404 133.731C94.9404 133.217 94.5234 132.8 94.0089 132.8C93.4945 132.8 93.0774 133.217 93.0774 133.731C93.0774 134.246 93.4945 134.663 94.0089 134.663Z" fill="#3F3D56"/>
<path d="M122.543 136.906C123.057 136.906 123.474 136.489 123.474 135.975C123.474 135.46 123.057 135.043 122.543 135.043C122.028 135.043 121.611 135.46 121.611 135.975C121.611 136.489 122.028 136.906 122.543 136.906Z" fill="#3F3D56"/>
<path d="M49.4987 137.08C49.2193 136.855 48.9926 136.573 48.8343 136.251C48.6761 135.93 48.5903 135.577 48.5829 135.219C48.5755 134.861 48.6467 134.506 48.7916 134.178C48.9365 133.85 49.1514 133.558 49.4213 133.323L46.1608 125.247L50.5969 126.143L53.0131 133.674C53.3789 134.154 53.556 134.751 53.5109 135.353C53.4659 135.954 53.2017 136.518 52.7685 136.938C52.3353 137.358 51.7632 137.604 51.1605 137.63C50.5579 137.656 49.9666 137.46 49.4987 137.08Z" fill="#FFB8B8"/>
<path d="M49.4446 133.581C49.2043 133.598 48.965 133.536 48.7635 133.404C48.562 133.272 48.4094 133.077 48.3294 132.85L43.0511 117.808L41.9231 102.802C41.892 102.389 41.9433 101.974 42.0741 101.581C42.2048 101.188 42.4123 100.825 42.6846 100.513C42.9569 100.201 43.2885 99.9463 43.6602 99.7636C44.0318 99.5809 44.436 99.4739 44.8494 99.4489C45.2627 99.4238 45.677 99.4812 46.0679 99.6177C46.4589 99.7541 46.8189 99.967 47.1268 100.244C47.4348 100.521 47.6847 100.856 47.862 101.23C48.0392 101.604 48.1403 102.01 48.1593 102.424L48.7909 116.128L52.9333 131.292C53.0046 131.558 52.9738 131.841 52.8468 132.086C52.7198 132.33 52.5059 132.518 52.2473 132.613L49.7361 133.518C49.6422 133.552 49.5442 133.573 49.4446 133.581Z" fill="#3F3D56"/>
<path d="M147.311 120.253C147.212 120.21 147.121 120.153 147.039 120.083L142.13 115.948C142.012 115.849 141.916 115.726 141.848 115.588C141.78 115.449 141.741 115.298 141.734 115.144C141.728 114.99 141.753 114.836 141.809 114.692C141.864 114.548 141.949 114.418 142.058 114.308L146.513 109.836C146.7 109.646 146.949 109.531 147.214 109.509C147.479 109.488 147.743 109.563 147.958 109.721L151.326 112.167C151.537 112.319 151.687 112.541 151.751 112.793C151.816 113.044 151.79 113.311 151.679 113.546L148.765 119.707C148.641 119.969 148.42 120.173 148.149 120.275C147.877 120.377 147.577 120.369 147.311 120.253L147.311 120.253Z" fill="#008080"/>
<path d="M166.456 178.735L163.525 179.533L159.053 168.604L163.38 167.427L166.456 178.735Z" fill="#FFB8B8"/>
<path d="M161.144 179.281L166.857 177.727L167.825 181.286L158.611 183.793L158.595 183.734C158.343 182.806 158.469 181.815 158.947 180.98C159.425 180.145 160.215 179.534 161.144 179.281Z" fill="#192027"/>
<path d="M141.394 180.972L138.356 180.972L136.91 169.253L141.395 169.253L141.394 180.972Z" fill="#FFB8B8"/>
<path d="M136.124 180.104H142.045V183.793H132.496V183.732C132.496 182.77 132.878 181.847 133.559 181.166C134.239 180.486 135.162 180.104 136.124 180.104Z" fill="#192027"/>
<path d="M145.971 103.598C149.333 103.598 152.058 100.872 152.058 97.5108C152.058 94.1492 149.333 91.4241 145.971 91.4241C142.609 91.4241 139.884 94.1492 139.884 97.5108C139.884 100.872 142.609 103.598 145.971 103.598Z" fill="#FFB8B8"/>
<path d="M141.208 172.616H137.056C136.772 172.616 136.499 172.508 136.292 172.313C136.085 172.119 135.96 171.853 135.942 171.57C134.705 151.903 135.428 137.795 138.219 127.172C138.231 127.126 138.247 127.08 138.264 127.035L138.487 126.479C138.569 126.272 138.712 126.094 138.896 125.969C139.081 125.844 139.299 125.778 139.522 125.778H148.06C148.221 125.778 148.38 125.813 148.526 125.88C148.672 125.947 148.802 126.045 148.907 126.168L150.067 127.521C150.089 127.547 150.11 127.574 150.131 127.602C155.36 134.895 160.046 149.151 165.474 168.314C165.554 168.592 165.522 168.891 165.385 169.147C165.248 169.402 165.017 169.594 164.741 169.681L160.279 171.109C160.023 171.19 159.746 171.176 159.499 171.07C159.253 170.964 159.052 170.772 158.934 170.531L147.356 146.515C147.275 146.348 147.142 146.21 146.977 146.124C146.812 146.037 146.623 146.006 146.439 146.035C146.255 146.065 146.085 146.152 145.955 146.285C145.824 146.418 145.74 146.59 145.715 146.775L142.313 171.652C142.275 171.919 142.143 172.163 141.94 172.341C141.737 172.518 141.477 172.616 141.208 172.616Z" fill="#192027"/>
<path d="M149.599 127.62C149.587 127.62 149.575 127.619 149.564 127.619L139.193 127.292C138.926 127.284 138.671 127.181 138.474 127.001C138.277 126.821 138.151 126.577 138.12 126.312C136.805 115.67 140.411 112.819 142.022 112.088C142.157 112.027 142.273 111.932 142.361 111.813C142.448 111.694 142.503 111.554 142.521 111.408L142.66 110.292C142.684 110.095 142.76 109.908 142.88 109.751C145.407 106.478 148.856 105.43 150.688 105.097C150.836 105.07 150.988 105.074 151.136 105.108C151.283 105.142 151.421 105.206 151.543 105.295C151.665 105.384 151.767 105.497 151.844 105.627C151.92 105.757 151.97 105.901 151.989 106.051L152.198 107.653C152.219 107.805 152.28 107.95 152.375 108.072C157.643 114.959 151.774 125.129 150.544 127.097C150.443 127.257 150.304 127.389 150.138 127.48C149.973 127.572 149.787 127.62 149.599 127.62Z" fill="#008080"/>
<path d="M152.668 93.7253C152.216 92.3549 151.882 90.9481 151.67 89.5206C151.604 88.6896 151.817 87.7953 152.422 87.2219C153.555 86.1488 155.479 86.6599 156.664 87.6755C158.376 89.1433 159.229 91.399 159.552 93.6308C159.875 95.8626 159.733 98.1321 159.81 100.386C159.888 102.639 160.21 104.957 161.359 106.897C162.508 108.837 164.64 110.327 166.889 110.162C167.797 110.113 168.659 109.747 169.326 109.129C169.653 108.818 169.901 108.433 170.048 108.006C170.196 107.579 170.239 107.123 170.174 106.676C171.323 108.734 170.741 111.524 169.026 113.142C167.312 114.76 164.674 115.217 162.42 114.527C160.167 113.836 158.311 112.104 157.203 110.023C156.095 107.942 155.689 105.538 155.748 103.181C155.793 101.372 156.101 99.5471 155.795 97.7628C155.489 95.9784 154.373 94.1667 152.612 93.7465L152.668 93.7253Z" fill="#192027"/>
<path d="M144.76 96.0713C144.46 97.0742 143.311 97.6926 142.278 97.523C141.764 97.416 141.288 97.1718 140.902 96.8163C140.515 96.4609 140.232 96.0073 140.082 95.5039C139.798 94.4838 139.914 93.3939 140.407 92.4566C140.678 91.8948 141.058 91.392 141.523 90.977C141.989 90.562 142.533 90.243 143.122 90.0382C143.715 89.8417 144.346 89.7906 144.962 89.8892C145.579 89.9877 146.163 90.2329 146.665 90.6042C146.718 90.3789 146.831 90.172 146.991 90.0046C147.151 89.8372 147.353 89.7155 147.575 89.6521C148.024 89.5312 148.497 89.5382 148.942 89.6722C150.223 90.0374 151.333 90.8451 152.075 91.9518C152.807 93.055 153.292 94.304 153.495 95.6125C153.845 97.5749 153.716 99.7192 152.614 101.38C151.512 103.041 149.257 104.022 147.427 103.23C147.313 102.647 147.584 102.059 147.896 101.554C148.209 101.049 148.579 100.557 148.699 99.9748C148.82 99.3929 148.589 98.6811 148.026 98.4908C147.546 98.3285 147.034 98.5915 146.528 98.6233C146.241 98.6413 145.954 98.5835 145.696 98.4556C145.438 98.3277 145.219 98.1342 145.059 97.8946C144.9 97.655 144.806 97.3777 144.787 97.0904C144.769 96.8031 144.826 96.5161 144.954 96.258L144.76 96.0713Z" fill="#192027"/>
<path d="M129.334 121.146C129.434 121.239 129.527 121.34 129.612 121.448L141.865 120.494L143.157 117.803L147.475 119.222L145.14 125.606L129.705 124.57C129.4 125.001 128.971 125.329 128.475 125.511C127.979 125.692 127.439 125.719 126.928 125.586C126.417 125.453 125.958 125.168 125.613 124.769C125.267 124.369 125.052 123.874 124.995 123.349C124.938 122.823 125.042 122.293 125.294 121.829C125.546 121.365 125.933 120.988 126.404 120.749C126.874 120.51 127.407 120.42 127.93 120.491C128.454 120.562 128.943 120.79 129.334 121.146V121.146Z" fill="#FFB8B8"/>
<path d="M147.408 123.474C147.305 123.445 147.206 123.4 147.116 123.343L141.689 119.915C141.559 119.833 141.447 119.724 141.361 119.597C141.274 119.469 141.215 119.324 141.188 119.173C141.16 119.021 141.164 118.865 141.2 118.715C141.235 118.565 141.302 118.424 141.395 118.301L145.198 113.263C145.357 113.05 145.588 112.901 145.848 112.844C146.108 112.787 146.38 112.825 146.614 112.952L150.285 114.916C150.514 115.039 150.693 115.237 150.791 115.478C150.889 115.719 150.9 115.986 150.822 116.234L148.775 122.735C148.688 123.011 148.496 123.243 148.241 123.381C147.986 123.519 147.687 123.552 147.408 123.474Z" fill="#008080"/>
</g>
<defs>
<clipPath id="clip0">
<rect width="185.71" height="168.111" fill="white" transform="translate(7 16)"/>
</clipPath>
</defs>
</svg>
