<svg width="200" height="200" viewBox="0 0 200 200" fill="none" xmlns="http://www.w3.org/2000/svg">
<g clip-path="url(#clip0)">
<path d="M17.9426 129.972C12.4765 127.983 7.73157 123.227 7.12964 117.441C12.436 120.884 18.7891 122.339 25.0648 121.548C27.484 121.234 30.142 120.634 32.2122 121.924C33.5003 122.727 34.3 124.153 34.6669 125.625C35.0337 127.098 35.0172 128.636 34.9985 130.154L35.1687 130.492C29.4587 131.601 23.4087 131.96 17.9426 129.972Z" fill="#008080"/>
<path d="M7.24821 117.413C10.0337 121.339 13.9857 124.289 18.5429 125.841C19.518 126.193 20.5424 126.389 21.5785 126.422C22.5888 126.421 23.5805 126.15 24.4505 125.636C25.2713 125.173 26.0574 124.605 26.9763 124.35C27.4487 124.226 27.9418 124.204 28.4234 124.285C28.905 124.365 29.3641 124.546 29.7707 124.816C30.8013 125.464 31.538 126.442 32.2252 127.425C32.9881 128.515 33.7633 129.66 34.9543 130.322C35.0986 130.402 34.9657 130.622 34.8216 130.542C32.7495 129.39 31.9823 126.946 30.2185 125.461C29.3955 124.768 28.3587 124.318 27.2711 124.542C26.32 124.738 25.5089 125.324 24.6819 125.799C23.8405 126.313 22.8862 126.612 21.9023 126.672C20.8679 126.692 19.8376 126.536 18.8556 126.211C16.6329 125.513 14.5338 124.47 12.6351 123.121C10.4595 121.592 8.56142 119.703 7.02292 117.535C6.92776 117.401 7.15366 117.279 7.24821 117.413V117.413Z" fill="#005C5C"/>
<path d="M17.046 125.428C16.6817 126.157 16.07 126.733 15.3203 127.053C14.5705 127.373 13.7314 127.416 12.9529 127.174C12.7955 127.125 12.865 126.878 13.0225 126.927C13.7471 127.154 14.5287 127.114 15.2263 126.814C15.9238 126.515 16.4915 125.976 16.8267 125.295C16.8997 125.147 17.1187 125.281 17.046 125.428V125.428Z" fill="#005C5C"/>
<path d="M24.0652 125.925C23.552 124.34 22.46 123.006 21.0071 122.19C20.8631 122.11 20.996 121.89 21.1398 121.971C22.6501 122.823 23.7837 124.213 24.3142 125.864C24.3646 126.021 24.1154 126.082 24.0652 125.925Z" fill="#005C5C"/>
<path d="M10.7493 121.415C10.9491 121.162 11.083 120.864 11.1389 120.546C11.1948 120.229 11.171 119.903 11.0697 119.597C11.0173 119.44 11.2666 119.38 11.3186 119.536C11.429 119.874 11.4548 120.235 11.3938 120.585C11.3328 120.936 11.1868 121.266 10.9687 121.548C10.9503 121.576 10.9219 121.596 10.8892 121.604C10.8565 121.612 10.822 121.607 10.7927 121.591C10.7637 121.573 10.7429 121.545 10.7348 121.512C10.7267 121.479 10.7319 121.444 10.7493 121.415V121.415Z" fill="#005C5C"/>
<path d="M20.9254 103.387C20.9609 103.484 20.9964 103.581 21.034 103.679C21.5183 104.979 22.1074 106.238 22.7955 107.443C22.8472 107.537 22.9011 107.631 22.9554 107.723C24.6441 110.608 26.8539 113.155 29.4722 115.233C30.5149 116.06 31.6189 116.805 32.7747 117.464C34.3709 118.373 36.174 119.232 37.3422 120.576C37.4657 120.715 37.5804 120.862 37.6858 121.015L35.5685 130.258C35.5531 130.277 35.5399 130.296 35.5245 130.315L35.4568 130.688C35.3948 130.658 35.3312 130.626 35.2692 130.596C35.2332 130.579 35.1976 130.56 35.1616 130.542C35.1378 130.53 35.1139 130.518 35.0917 130.509C35.0837 130.505 35.0758 130.501 35.0699 130.497C35.0477 130.488 35.028 130.476 35.0079 130.467C34.6517 130.288 34.2961 130.106 33.9411 129.921C33.939 129.921 33.939 129.921 33.9373 129.918C31.2191 128.535 28.6744 126.835 26.3568 124.852C26.2884 124.792 26.2179 124.732 26.1505 124.667C25.131 123.762 24.1873 122.774 23.3287 121.715C22.8604 121.133 22.4218 120.528 22.0147 119.902C20.9659 118.283 20.1784 116.509 19.681 114.644C18.6899 110.928 18.8984 106.936 20.7792 103.638C20.8274 103.554 20.8751 103.471 20.9254 103.387Z" fill="#008080"/>
<path d="M21.0379 103.435C20.8978 108.247 22.2776 112.982 24.9813 116.965C25.5481 117.833 26.2482 118.606 27.0558 119.256C27.8629 119.864 28.8181 120.244 29.8219 120.358C30.7558 120.483 31.7256 120.502 32.6129 120.852C33.0644 121.038 33.4716 121.317 33.8077 121.671C34.1438 122.025 34.4013 122.446 34.5632 122.907C34.9965 124.044 34.9954 125.269 34.9527 126.467C34.9052 127.797 34.8349 129.178 35.3872 130.424C35.4541 130.575 35.216 130.67 35.1491 130.519C34.1882 128.351 35.0467 125.939 34.5328 123.691C34.293 122.642 33.7356 121.659 32.7324 121.183C31.8551 120.767 30.8551 120.746 29.9084 120.627C28.9275 120.531 27.9851 120.196 27.1636 119.651C26.3255 119.044 25.5968 118.299 25.0087 117.448C23.654 115.553 22.6057 113.457 21.9023 111.236C21.0853 108.706 20.7072 106.055 20.7843 103.397C20.7892 103.233 21.0427 103.272 21.0379 103.435L21.0379 103.435Z" fill="#005C5C"/>
<path d="M24.0352 115.734C23.3052 116.097 22.47 116.188 21.6788 115.992C20.8876 115.796 20.1918 115.325 19.7157 114.664C19.6198 114.529 19.8239 114.374 19.9199 114.508C20.3621 115.125 21.0102 115.564 21.7474 115.745C22.4846 115.926 23.2622 115.838 23.9399 115.496C24.0873 115.422 24.1817 115.66 24.0352 115.734Z" fill="#005C5C"/>
<path d="M29.3401 120.357C29.8847 118.782 29.8158 117.06 29.1471 115.534C29.0807 115.382 29.3188 115.287 29.3851 115.438C30.078 117.028 30.1461 118.82 29.5757 120.458C29.5212 120.614 29.2859 120.512 29.3401 120.357Z" fill="#252525"/>
<path d="M21.4236 108.739C21.7353 108.657 22.0219 108.499 22.2576 108.28C22.4932 108.06 22.6707 107.785 22.7739 107.48C22.8264 107.323 23.0617 107.425 23.0096 107.581C22.8939 107.918 22.6976 108.221 22.4377 108.464C22.1779 108.707 21.8624 108.883 21.5189 108.977C21.4872 108.988 21.4524 108.987 21.4214 108.974C21.3905 108.961 21.3657 108.936 21.3522 108.905C21.3398 108.874 21.3403 108.838 21.3537 108.807C21.367 108.776 21.3922 108.751 21.4236 108.739H21.4236Z" fill="#005C5C"/>
<path d="M183.386 129.781C188.567 127.136 192.691 121.832 192.577 116.016C187.734 120.085 181.608 122.31 175.283 122.297C172.843 122.283 170.132 122.013 168.236 123.548C167.056 124.503 166.438 126.016 166.255 127.523C166.072 129.03 166.277 130.554 166.482 132.058L166.355 132.415C172.158 132.813 178.206 132.426 183.386 129.781Z" fill="#008080"/>
<path d="M192.456 116.002C190.174 120.242 186.615 123.654 182.283 125.756C181.359 126.225 180.366 126.545 179.342 126.705C178.339 126.828 177.322 126.681 176.395 126.278C175.524 125.92 174.674 125.452 173.73 125.312C173.246 125.248 172.754 125.286 172.286 125.425C171.818 125.564 171.385 125.8 171.014 126.118C170.071 126.887 169.46 127.949 168.899 129.009C168.276 130.185 167.648 131.416 166.547 132.22C166.414 132.317 166.572 132.518 166.706 132.421C168.62 131.023 169.081 128.504 170.649 126.813C171.381 126.024 172.355 125.451 173.461 125.539C174.429 125.617 175.306 126.098 176.185 126.468C177.084 126.874 178.067 127.055 179.051 126.993C180.08 126.886 181.084 126.604 182.018 126.16C184.138 125.195 186.093 123.902 187.812 122.329C189.783 120.545 191.434 118.437 192.695 116.096C192.773 115.951 192.534 115.858 192.456 116.002Z" fill="#005C5C"/>
<path d="M183.718 125.161C184.169 125.84 184.847 126.336 185.63 126.562C186.413 126.787 187.251 126.726 187.994 126.391C188.144 126.322 188.045 126.086 187.895 126.155C187.204 126.468 186.423 126.525 185.694 126.313C184.965 126.102 184.335 125.637 183.919 125.002C183.828 124.865 183.627 125.024 183.718 125.161Z" fill="#005C5C"/>
<path d="M176.813 126.518C177.127 124.881 178.047 123.423 179.389 122.435C179.522 122.337 179.363 122.136 179.23 122.234C177.836 123.265 176.882 124.784 176.558 126.487C176.528 126.65 176.782 126.679 176.813 126.518H176.813Z" fill="#005C5C"/>
<path d="M189.473 120.405C189.244 120.178 189.075 119.899 188.98 119.591C188.886 119.283 188.869 118.956 188.932 118.64C188.965 118.478 188.71 118.449 188.677 118.61C188.609 118.959 188.628 119.32 188.732 119.66C188.835 120.001 189.021 120.311 189.272 120.563C189.294 120.589 189.324 120.606 189.358 120.61C189.391 120.614 189.425 120.605 189.452 120.585C189.479 120.564 189.496 120.533 189.5 120.499C189.504 120.465 189.494 120.431 189.473 120.405H189.473Z" fill="#005C5C"/>
<path d="M177.159 103.765C177.135 103.865 177.112 103.966 177.087 104.067C176.766 105.417 176.336 106.739 175.801 108.019C175.761 108.119 175.72 108.219 175.677 108.317C174.356 111.388 172.476 114.187 170.133 116.571C169.2 117.519 168.196 118.395 167.129 119.191C165.657 120.29 163.973 121.364 162.979 122.841C162.874 122.994 162.778 123.154 162.692 123.318L165.93 132.232C165.947 132.248 165.963 132.266 165.98 132.282L166.093 132.644C166.151 132.607 166.21 132.567 166.268 132.53C166.302 132.509 166.335 132.485 166.368 132.464C166.39 132.449 166.413 132.434 166.434 132.422C166.441 132.417 166.448 132.412 166.454 132.407C166.475 132.395 166.493 132.382 166.512 132.37C166.843 132.149 167.174 131.924 167.503 131.697C167.505 131.696 167.505 131.696 167.507 131.694C170.034 129.987 172.351 127.987 174.407 125.734C174.467 125.666 174.53 125.598 174.589 125.526C175.489 124.501 176.305 123.405 177.026 122.249C177.42 121.614 177.781 120.959 178.108 120.288C178.949 118.552 179.513 116.695 179.777 114.783C180.304 110.973 179.607 107.037 177.335 103.995C177.276 103.918 177.219 103.842 177.159 103.765Z" fill="#008080"/>
<path d="M177.053 103.826C177.783 108.584 176.996 113.452 174.802 117.738C174.347 118.669 173.747 119.522 173.025 120.267C172.299 120.969 171.398 121.464 170.415 121.7C169.504 121.939 168.544 122.077 167.706 122.533C167.281 122.773 166.911 123.1 166.621 123.493C166.331 123.886 166.128 124.335 166.023 124.812C165.733 125.994 165.885 127.21 166.075 128.393C166.285 129.708 166.525 131.069 166.13 132.373C166.082 132.531 166.33 132.596 166.378 132.439C167.065 130.17 165.916 127.881 166.15 125.587C166.259 124.516 166.691 123.472 167.629 122.877C168.448 122.356 169.438 122.212 170.363 121.978C171.324 121.762 172.219 121.313 172.967 120.672C173.724 119.967 174.356 119.138 174.835 118.221C175.946 116.174 176.729 113.964 177.154 111.674C177.654 109.063 177.703 106.385 177.3 103.757C177.275 103.594 177.028 103.664 177.053 103.826Z" fill="#005C5C"/>
<path d="M175.59 116.4C176.359 116.67 177.199 116.658 177.96 116.366C178.721 116.075 179.354 115.522 179.745 114.807C179.824 114.662 179.602 114.533 179.523 114.678C179.16 115.344 178.571 115.859 177.862 116.13C177.152 116.4 176.37 116.408 175.655 116.152C175.5 116.096 175.435 116.344 175.59 116.4Z" fill="#005C5C"/>
<path d="M170.894 121.64C170.159 120.144 170.016 118.426 170.492 116.829C170.54 116.671 170.292 116.606 170.244 116.764C169.752 118.427 169.905 120.214 170.672 121.769C170.745 121.917 170.966 121.787 170.894 121.64Z" fill="#005C5C"/>
<path d="M177.322 109.137C177.002 109.094 176.699 108.973 176.438 108.784C176.177 108.595 175.967 108.344 175.827 108.053C175.756 107.904 175.535 108.035 175.606 108.183C175.762 108.503 175.994 108.779 176.282 108.989C176.569 109.198 176.904 109.334 177.257 109.384C177.289 109.392 177.324 109.387 177.353 109.37C177.382 109.353 177.404 109.325 177.413 109.293C177.422 109.26 177.417 109.225 177.4 109.196C177.383 109.167 177.355 109.145 177.322 109.137V109.137Z" fill="#252525"/>
<path d="M168.767 48.8073H132.27V51.1551C132.269 51.2753 132.311 51.392 132.387 51.4851C132.313 53.3202 132.27 55.6629 132.27 58.2087V120.978C132.27 126.862 132.506 131.649 132.795 131.649H168.241C168.531 131.649 168.767 126.862 168.767 120.978V58.2087C168.767 55.6629 168.723 53.3202 168.65 51.4851C168.726 51.392 168.767 51.2753 168.767 51.1551L168.767 48.8073Z" fill="#252525"/>
<path d="M168.241 131.903H132.795C132.519 131.903 132.337 131.903 132.171 128.532C132.071 126.51 132.016 123.827 132.016 120.978V58.2088C132.016 55.7483 132.058 53.3568 132.133 51.4749C132.18 50.345 132.234 49.4399 132.294 48.7844C132.41 47.5011 132.521 47.2844 132.795 47.2844H168.241C168.515 47.2844 168.626 47.5011 168.743 48.7844C168.802 49.4423 168.856 50.3474 168.903 51.4744L168.903 51.4749C168.979 53.3549 169.02 55.7463 169.02 58.2088V120.978C169.02 123.827 168.966 126.51 168.866 128.532C168.7 131.903 168.517 131.903 168.241 131.903ZM132.939 131.395H168.097C168.281 130.701 168.513 126.935 168.513 120.978V58.2088C168.513 55.753 168.471 53.369 168.396 51.4957H168.396C168.349 50.3768 168.296 49.48 168.237 48.8302C168.214 48.4812 168.167 48.1342 168.095 47.792H132.942C132.87 48.1342 132.822 48.4812 132.799 48.8302C132.741 49.4775 132.687 50.3743 132.64 51.4957C132.565 53.3706 132.524 55.7549 132.524 58.2088V120.978C132.524 126.935 132.756 130.701 132.939 131.395Z" fill="#2A2A2A"/>
<path d="M168.241 47.5382H132.795C132.656 47.5384 132.523 47.5939 132.424 47.6923C132.326 47.7908 132.27 47.9243 132.27 48.0636V51.1551C132.269 51.2753 132.311 51.392 132.387 51.4851C132.436 51.5459 132.498 51.595 132.569 51.6288C132.64 51.6626 132.717 51.6803 132.795 51.6805H168.241C168.32 51.6803 168.397 51.6626 168.468 51.6288C168.538 51.595 168.6 51.5459 168.65 51.4851C168.726 51.392 168.767 51.2753 168.767 51.1551V48.0636C168.766 47.9243 168.711 47.7908 168.612 47.6924C168.514 47.5939 168.38 47.5384 168.241 47.5382Z" fill="#102030"/>
<path d="M135.321 50.2046C135.733 50.2046 136.067 49.8705 136.067 49.4584C136.067 49.0464 135.733 48.7123 135.321 48.7123C134.909 48.7123 134.575 49.0464 134.575 49.4584C134.575 49.8705 134.909 50.2046 135.321 50.2046Z" fill="white"/>
<path d="M138.153 50.2046C138.565 50.2046 138.899 49.8705 138.899 49.4584C138.899 49.0464 138.565 48.7123 138.153 48.7123C137.741 48.7123 137.407 49.0464 137.407 49.4584C137.407 49.8705 137.741 50.2046 138.153 50.2046Z" fill="white"/>
<path d="M140.985 50.2046C141.397 50.2046 141.731 49.8705 141.731 49.4584C141.731 49.0464 141.397 48.7123 140.985 48.7123C140.573 48.7123 140.239 49.0464 140.239 49.4584C140.239 49.8705 140.573 50.2046 140.985 50.2046Z" fill="white"/>
<path d="M165.467 48.4621H162.205C162.142 48.4625 162.08 48.4881 162.035 48.5332C161.99 48.5784 161.965 48.6394 161.964 48.7032C161.963 48.7396 161.972 48.7755 161.99 48.8073C162.009 48.8482 162.04 48.8828 162.078 48.907C162.116 48.9313 162.16 48.9442 162.205 48.9444H165.467C165.513 48.9446 165.557 48.9318 165.596 48.9076C165.635 48.8833 165.666 48.8485 165.685 48.8073C165.701 48.7749 165.709 48.7392 165.708 48.7032C165.708 48.6716 165.702 48.6402 165.69 48.6109C165.678 48.5817 165.66 48.5551 165.638 48.5327C165.615 48.5103 165.589 48.4925 165.559 48.4804C165.53 48.4683 165.499 48.4621 165.467 48.4621Z" fill="white"/>
<path d="M165.467 49.3682H162.205C162.141 49.3682 162.08 49.3936 162.035 49.4388C161.99 49.4841 161.964 49.5454 161.964 49.6093C161.964 49.6733 161.99 49.7346 162.035 49.7798C162.08 49.8251 162.141 49.8505 162.205 49.8505H165.467C165.531 49.8505 165.592 49.8251 165.637 49.7798C165.683 49.7346 165.708 49.6733 165.708 49.6093C165.708 49.5454 165.683 49.4841 165.637 49.4388C165.592 49.3936 165.531 49.3682 165.467 49.3682Z" fill="white"/>
<path d="M165.467 50.2744H162.205C162.141 50.2744 162.08 50.2998 162.035 50.345C161.99 50.3902 161.964 50.4516 161.964 50.5155C161.964 50.5795 161.99 50.6408 162.035 50.686C162.08 50.7312 162.141 50.7566 162.205 50.7566H165.467C165.531 50.7566 165.592 50.7312 165.637 50.686C165.683 50.6408 165.708 50.5795 165.708 50.5155C165.708 50.4516 165.683 50.3902 165.637 50.345C165.592 50.2998 165.531 50.2744 165.467 50.2744Z" fill="white"/>
<path d="M154.045 58.4575H147.334C146.998 58.4577 146.675 58.5914 146.437 58.8294C146.199 59.0674 146.065 59.3901 146.065 59.7266V65.5391C146.066 65.8755 146.2 66.198 146.437 66.4359C146.675 66.6737 146.998 66.8076 147.334 66.8082H154.045C154.381 66.8072 154.704 66.6732 154.941 66.4354C155.179 66.1976 155.313 65.8754 155.314 65.5391V59.7266C155.314 59.3902 155.18 59.0677 154.942 58.8298C154.704 58.592 154.382 58.4581 154.045 58.4575Z" fill="#3737FF"/>
<path d="M162.383 70.6053H138.994C138.841 70.6053 138.694 70.666 138.586 70.774C138.478 70.8821 138.417 71.0286 138.417 71.1815C138.417 71.3343 138.478 71.4808 138.586 71.5889C138.694 71.6969 138.841 71.7576 138.994 71.7576H162.383C162.536 71.7576 162.682 71.6969 162.791 71.5889C162.899 71.4808 162.959 71.3343 162.959 71.1815C162.959 71.0286 162.899 70.8821 162.791 70.774C162.682 70.666 162.536 70.6053 162.383 70.6053Z" fill="#CCCCCC"/>
<path d="M147.877 73.306H138.994C138.841 73.306 138.694 73.3667 138.586 73.4747C138.478 73.5828 138.417 73.7293 138.417 73.8821C138.417 74.0349 138.478 74.1815 138.586 74.2896C138.694 74.3976 138.841 74.4583 138.994 74.4583H147.877C148.03 74.4583 148.177 74.3976 148.285 74.2896C148.393 74.1815 148.454 74.0349 148.454 73.8821C148.454 73.7293 148.393 73.5828 148.285 73.4747C148.177 73.3667 148.03 73.306 147.877 73.306Z" fill="#CCCCCC"/>
<path d="M154.045 83.5856H147.334C146.998 83.5858 146.675 83.7195 146.437 83.9575C146.199 84.1955 146.065 84.5182 146.065 84.8547V90.6672C146.066 91.0036 146.2 91.3261 146.437 91.564C146.675 91.8019 146.998 91.9358 147.334 91.9363H154.045C154.381 91.9353 154.704 91.8013 154.941 91.5635C155.179 91.3257 155.313 91.0035 155.314 90.6672V84.8547C155.314 84.5183 155.18 84.1959 154.942 83.958C154.704 83.7201 154.382 83.5862 154.045 83.5856Z" fill="#3737FF"/>
<path d="M162.383 95.7334H138.994C138.841 95.7334 138.694 95.7941 138.586 95.9022C138.478 96.0102 138.417 96.1568 138.417 96.3096C138.417 96.4624 138.478 96.609 138.586 96.717C138.694 96.8251 138.841 96.8858 138.994 96.8858H162.383C162.536 96.8858 162.682 96.8251 162.791 96.717C162.899 96.609 162.959 96.4624 162.959 96.3096C162.959 96.1568 162.899 96.0102 162.791 95.9022C162.682 95.7941 162.536 95.7334 162.383 95.7334Z" fill="#CCCCCC"/>
<path d="M147.877 98.4341H138.994C138.841 98.4341 138.694 98.4948 138.586 98.6029C138.478 98.7109 138.417 98.8575 138.417 99.0103C138.417 99.1631 138.478 99.3096 138.586 99.4177C138.694 99.5257 138.841 99.5864 138.994 99.5864H147.877C148.03 99.5864 148.177 99.5257 148.285 99.4177C148.393 99.3096 148.454 99.1631 148.454 99.0103C148.454 98.8575 148.393 98.7109 148.285 98.6029C148.177 98.4948 148.03 98.4341 147.877 98.4341Z" fill="#CCCCCC"/>
<path d="M154.045 108.714H147.334C146.998 108.714 146.675 108.848 146.437 109.086C146.199 109.324 146.065 109.646 146.065 109.983V115.795C146.066 116.132 146.2 116.454 146.437 116.692C146.675 116.93 146.998 117.064 147.334 117.064H154.045C154.381 117.063 154.704 116.929 154.941 116.692C155.179 116.454 155.313 116.132 155.314 115.795V109.983C155.314 109.646 155.18 109.324 154.942 109.086C154.704 108.848 154.382 108.714 154.045 108.714Z" fill="#3737FF"/>
<path d="M162.383 120.862H138.994C138.841 120.862 138.694 120.922 138.586 121.03C138.478 121.138 138.417 121.285 138.417 121.438C138.417 121.591 138.478 121.737 138.586 121.845C138.694 121.953 138.841 122.014 138.994 122.014H162.383C162.536 122.014 162.682 121.953 162.791 121.845C162.899 121.737 162.959 121.591 162.959 121.438C162.959 121.285 162.899 121.138 162.791 121.03C162.682 120.922 162.536 120.862 162.383 120.862Z" fill="#CCCCCC"/>
<path d="M147.877 123.562H138.994C138.841 123.562 138.694 123.623 138.586 123.731C138.478 123.839 138.417 123.986 138.417 124.138C138.417 124.291 138.478 124.438 138.586 124.546C138.694 124.654 138.841 124.715 138.994 124.715H147.877C148.03 124.715 148.177 124.654 148.285 124.546C148.393 124.438 148.454 124.291 148.454 124.138C148.454 123.986 148.393 123.839 148.285 123.731C148.177 123.623 148.03 123.562 147.877 123.562Z" fill="#CCCCCC"/>
<path d="M122.318 45.7792C122.317 45.6399 122.262 45.5065 122.163 45.408C122.065 45.3095 121.931 45.2541 121.792 45.2538H27.9679C27.8286 45.2541 27.6951 45.3095 27.5966 45.408C27.4981 45.5064 27.4427 45.6399 27.4424 45.7792V48.8707C27.4419 48.9994 27.49 49.1236 27.577 49.2184C27.4932 51.3175 27.4424 54.0842 27.4424 57.1148V126.892C27.4424 133.436 27.6785 138.756 27.9679 138.756H121.792C122.082 138.756 122.318 133.436 122.318 126.892V57.1148C122.318 54.0842 122.267 51.3175 122.183 49.2184C122.27 49.1236 122.318 48.9994 122.318 48.8707V45.7792Z" fill="#252525"/>
<path d="M121.792 139.01H27.9679C27.6811 139.01 27.5079 139.01 27.3431 135.289C27.2434 133.042 27.1886 130.06 27.1886 126.892V57.1148C27.1886 54.194 27.2365 51.3861 27.3234 49.2083C27.4903 45 27.6803 45 27.9679 45H121.792C122.08 45 122.27 45.0007 122.437 49.2083C122.524 51.3841 122.571 54.192 122.571 57.1148V126.892C122.571 130.06 122.517 133.042 122.417 135.289C122.252 139.01 122.079 139.01 121.792 139.01ZM28.1161 138.502H121.644C121.852 137.706 122.064 133.238 122.064 126.892V57.1148C122.064 54.1986 122.016 51.3977 121.93 49.2286V49.2285C121.824 46.5625 121.7 45.7512 121.641 45.5076H28.1188C28.0598 45.7513 27.9364 46.5625 27.8306 49.2285C27.744 51.3999 27.6962 54.2005 27.6962 57.1148V126.892C27.6962 133.238 27.9083 137.706 28.1161 138.502Z" fill="#2A2A2A"/>
<path d="M121.792 45.2538H27.9679C27.8286 45.2541 27.6951 45.3095 27.5966 45.408C27.4981 45.5064 27.4427 45.6399 27.4424 45.7792V48.8707C27.4419 48.9994 27.49 49.1236 27.577 49.2184C27.6258 49.2742 27.6858 49.3188 27.7533 49.3495C27.8207 49.3801 27.8938 49.396 27.9679 49.3961H121.792C121.866 49.396 121.939 49.3801 122.007 49.3495C122.074 49.3188 122.134 49.2742 122.183 49.2184C122.27 49.1236 122.318 48.9994 122.318 48.8707V45.7792C122.317 45.6399 122.262 45.5065 122.163 45.408C122.065 45.3095 121.931 45.2541 121.792 45.2538Z" fill="#102030"/>
<path d="M30.4933 47.9202C30.9054 47.9202 31.2395 47.5861 31.2395 47.1741C31.2395 46.762 30.9054 46.4279 30.4933 46.4279C30.0812 46.4279 29.7472 46.762 29.7472 47.1741C29.7472 47.5861 30.0812 47.9202 30.4933 47.9202Z" fill="white"/>
<path d="M33.3254 47.9202C33.7374 47.9202 34.0715 47.5861 34.0715 47.1741C34.0715 46.762 33.7374 46.4279 33.3254 46.4279C32.9133 46.4279 32.5792 46.762 32.5792 47.1741C32.5792 47.5861 32.9133 47.9202 33.3254 47.9202Z" fill="white"/>
<path d="M36.1576 47.9202C36.5697 47.9202 36.9038 47.5861 36.9038 47.1741C36.9038 46.762 36.5697 46.4279 36.1576 46.4279C35.7456 46.4279 35.4115 46.762 35.4115 47.1741C35.4115 47.5861 35.7456 47.9202 36.1576 47.9202Z" fill="white"/>
<path d="M119.018 46.1777H115.756C115.692 46.1777 115.631 46.2031 115.586 46.2484C115.541 46.2936 115.515 46.3549 115.515 46.4189C115.515 46.4828 115.541 46.5442 115.586 46.5894C115.631 46.6346 115.692 46.66 115.756 46.66H119.018C119.082 46.66 119.143 46.6346 119.189 46.5894C119.234 46.5442 119.259 46.4828 119.259 46.4189C119.259 46.3549 119.234 46.2936 119.189 46.2484C119.143 46.2031 119.082 46.1777 119.018 46.1777Z" fill="white"/>
<path d="M119.018 47.0838H115.756C115.692 47.0838 115.631 47.1092 115.586 47.1545C115.541 47.1997 115.515 47.261 115.515 47.325C115.515 47.3889 115.541 47.4502 115.586 47.4955C115.631 47.5407 115.692 47.5661 115.756 47.5661H119.018C119.082 47.5661 119.143 47.5407 119.189 47.4955C119.234 47.4502 119.259 47.3889 119.259 47.325C119.259 47.261 119.234 47.1997 119.189 47.1545C119.143 47.1092 119.082 47.0838 119.018 47.0838Z" fill="white"/>
<path d="M119.018 47.99H115.756C115.692 47.99 115.631 48.0154 115.586 48.0606C115.541 48.1058 115.515 48.1672 115.515 48.2311C115.515 48.2951 115.541 48.3564 115.586 48.4016C115.631 48.4469 115.692 48.4723 115.756 48.4723H119.018C119.082 48.4723 119.143 48.4469 119.189 48.4016C119.234 48.3564 119.259 48.2951 119.259 48.2311C119.259 48.1672 119.234 48.1058 119.189 48.0606C119.143 48.0154 119.082 47.99 119.018 47.99Z" fill="white"/>
<path d="M58.2943 60.7419H47.314C46.7635 60.7426 46.2358 60.9615 45.8466 61.3508C45.4574 61.74 45.2384 62.2677 45.2378 62.8181V72.3288C45.2384 72.8792 45.4574 73.4069 45.8466 73.7961C46.2358 74.1854 46.7635 74.4043 47.314 74.405H58.2943C58.8447 74.4043 59.3724 74.1854 59.7616 73.7961C60.1508 73.4069 60.3698 72.8792 60.3704 72.3288V62.8181C60.3698 62.2677 60.1508 61.74 59.7616 61.3508C59.3724 60.9615 58.8447 60.7426 58.2943 60.7419Z" fill="#3737FF"/>
<path d="M103.583 64.4197H65.3123C65.0622 64.4197 64.8224 64.519 64.6456 64.6959C64.4687 64.8727 64.3694 65.1125 64.3694 65.3626C64.3694 65.6127 64.4687 65.8525 64.6456 66.0294C64.8224 66.2062 65.0622 66.3056 65.3123 66.3056H103.583C103.833 66.3056 104.073 66.2062 104.25 66.0294C104.427 65.8525 104.526 65.6127 104.526 65.3626C104.526 65.1125 104.427 64.8727 104.25 64.6959C104.073 64.519 103.833 64.4197 103.583 64.4197Z" fill="#CCCCCC"/>
<path d="M79.8486 68.8387H65.3123C65.0622 68.8387 64.8224 68.938 64.6456 69.1148C64.4687 69.2917 64.3694 69.5315 64.3694 69.7816C64.3694 70.0317 64.4687 70.2715 64.6456 70.4483C64.8224 70.6252 65.0622 70.7245 65.3123 70.7245H79.8486C80.0987 70.7245 80.3385 70.6252 80.5153 70.4483C80.6922 70.2715 80.7915 70.0317 80.7915 69.7816C80.7915 69.5315 80.6922 69.2917 80.5153 69.1148C80.3385 68.938 80.0987 68.8387 79.8486 68.8387Z" fill="#CCCCCC"/>
<path d="M58.2943 86.1238H47.314C46.7635 86.1245 46.2358 86.3435 45.8466 86.7327C45.4574 87.1219 45.2384 87.6497 45.2378 88.2001V97.7107C45.2384 98.2612 45.4574 98.7889 45.8466 99.1781C46.2358 99.5673 46.7635 99.7863 47.314 99.787H58.2943C58.8447 99.7863 59.3724 99.5673 59.7616 99.1781C60.1508 98.7889 60.3698 98.2612 60.3704 97.7107V88.2001C60.3698 87.6497 60.1508 87.1219 59.7616 86.7327C59.3724 86.3435 58.8447 86.1245 58.2943 86.1238Z" fill="#3737FF"/>
<path d="M103.583 89.8017H65.3123C65.0622 89.8017 64.8224 89.901 64.6456 90.0779C64.4687 90.2547 64.3694 90.4945 64.3694 90.7446C64.3694 90.9947 64.4687 91.2345 64.6456 91.4114C64.8224 91.5882 65.0622 91.6876 65.3123 91.6876H103.583C103.833 91.6876 104.073 91.5882 104.25 91.4114C104.427 91.2345 104.526 90.9947 104.526 90.7446C104.526 90.4945 104.427 90.2547 104.25 90.0779C104.073 89.901 103.833 89.8017 103.583 89.8017Z" fill="#CCCCCC"/>
<path d="M79.8486 94.2206H65.3123C65.0622 94.2206 64.8224 94.32 64.6456 94.4968C64.4687 94.6737 64.3694 94.9135 64.3694 95.1636C64.3694 95.4137 64.4687 95.6535 64.6456 95.8303C64.8224 96.0072 65.0622 96.1065 65.3123 96.1065H79.8486C80.0987 96.1065 80.3385 96.0072 80.5153 95.8303C80.6922 95.6535 80.7915 95.4137 80.7915 95.1636C80.7915 94.9135 80.6922 94.6737 80.5153 94.4968C80.3385 94.32 80.0987 94.2206 79.8486 94.2206Z" fill="#CCCCCC"/>
<path d="M58.2943 111.506H47.314C46.7635 111.506 46.2358 111.725 45.8466 112.115C45.4574 112.504 45.2384 113.032 45.2378 113.582V123.093C45.2384 123.643 45.4574 124.171 45.8466 124.56C46.2358 124.949 46.7635 125.168 47.314 125.169H58.2943C58.8447 125.168 59.3724 124.949 59.7616 124.56C60.1508 124.171 60.3698 123.643 60.3704 123.093V113.582C60.3698 113.032 60.1508 112.504 59.7616 112.115C59.3724 111.725 58.8447 111.506 58.2943 111.506Z" fill="#3737FF"/>
<path d="M103.583 115.184H65.3123C65.0622 115.184 64.8224 115.283 64.6456 115.46C64.4687 115.637 64.3694 115.876 64.3694 116.127C64.3694 116.377 64.4687 116.616 64.6456 116.793C64.8224 116.97 65.0622 117.07 65.3123 117.07H103.583C103.833 117.07 104.073 116.97 104.25 116.793C104.427 116.616 104.526 116.377 104.526 116.127C104.526 115.876 104.427 115.637 104.25 115.46C104.073 115.283 103.833 115.184 103.583 115.184Z" fill="#CCCCCC"/>
<path d="M79.8486 119.603H65.3123C65.0622 119.603 64.8224 119.702 64.6456 119.879C64.4687 120.056 64.3694 120.295 64.3694 120.546C64.3694 120.796 64.4687 121.035 64.6456 121.212C64.8224 121.389 65.0622 121.488 65.3123 121.488H79.8486C80.0987 121.488 80.3385 121.389 80.5153 121.212C80.6922 121.035 80.7915 120.796 80.7915 120.546C80.7915 120.295 80.6922 120.056 80.5153 119.879C80.3385 119.702 80.0987 119.603 79.8486 119.603Z" fill="#CCCCCC"/>
<path d="M138.545 155.508H75.6869C75.3971 155.508 75.1614 151.053 75.1614 145.578V87.1651C75.1614 81.6892 75.3971 77.2348 75.6869 77.2348H138.545C138.835 77.2348 139.071 81.6892 139.071 87.1651V145.578C139.071 151.053 138.835 155.508 138.545 155.508Z" fill="#252525"/>
<path d="M138.545 155.762H75.687C75.4211 155.762 75.2289 155.762 75.0621 152.61C74.9624 150.728 74.9076 148.23 74.9076 145.578V87.1652C74.9076 84.5126 74.9624 82.0152 75.0621 80.1332C75.2289 76.981 75.4211 76.981 75.687 76.981H138.545C138.811 76.981 139.003 76.981 139.17 80.1332C139.27 82.0151 139.324 84.5126 139.324 87.1652V145.578C139.324 148.23 139.27 150.728 139.17 152.61C139.003 155.762 138.811 155.762 138.545 155.762ZM75.8274 155.254H138.405C138.587 154.597 138.817 151.093 138.817 145.578V87.1652C138.817 81.6498 138.587 78.1463 138.405 77.4887H75.8274C75.6453 78.1463 75.4152 81.6498 75.4152 87.1652V145.578C75.4152 151.093 75.6453 154.597 75.8274 155.254Z" fill="#2A2A2A"/>
<path d="M138.545 81.3773H75.6869C75.5476 81.3771 75.414 81.3217 75.3155 81.2232C75.217 81.1246 75.1615 80.9911 75.1614 80.8517V77.7604C75.1615 77.621 75.217 77.4875 75.3155 77.3889C75.414 77.2904 75.5476 77.235 75.6869 77.2348H138.545C138.684 77.235 138.818 77.2904 138.916 77.3889C139.015 77.4875 139.07 77.621 139.071 77.7604V80.8517C139.07 80.9911 139.015 81.1246 138.916 81.2232C138.818 81.3217 138.684 81.3771 138.545 81.3773Z" fill="#102030"/>
<path d="M78.2113 79.9014C78.6234 79.9014 78.9575 79.5674 78.9575 79.1553C78.9575 78.7432 78.6234 78.4092 78.2113 78.4092C77.7993 78.4092 77.4652 78.7432 77.4652 79.1553C77.4652 79.5674 77.7993 79.9014 78.2113 79.9014Z" fill="white"/>
<path d="M81.0435 79.9014C81.4556 79.9014 81.7896 79.5674 81.7896 79.1553C81.7896 78.7432 81.4556 78.4092 81.0435 78.4092C80.6314 78.4092 80.2974 78.7432 80.2974 79.1553C80.2974 79.5674 80.6314 79.9014 81.0435 79.9014Z" fill="white"/>
<path d="M83.8756 79.9014C84.2877 79.9014 84.6218 79.5674 84.6218 79.1553C84.6218 78.7432 84.2877 78.4092 83.8756 78.4092C83.4636 78.4092 83.1295 78.7432 83.1295 79.1553C83.1295 79.5674 83.4636 79.9014 83.8756 79.9014Z" fill="white"/>
<path d="M135.77 78.6418H132.509C132.445 78.6418 132.384 78.6163 132.338 78.571C132.293 78.5257 132.267 78.4643 132.267 78.4002C132.267 78.3361 132.293 78.2747 132.338 78.2294C132.384 78.1841 132.445 78.1586 132.509 78.1586H135.77C135.834 78.1588 135.895 78.1844 135.941 78.2296C135.986 78.2749 136.011 78.3363 136.011 78.4002C136.011 78.4641 135.986 78.5255 135.941 78.5707C135.895 78.616 135.834 78.6416 135.77 78.6418Z" fill="white"/>
<path d="M135.77 79.5476H132.509C132.445 79.5476 132.384 79.5222 132.338 79.4769C132.293 79.4316 132.267 79.3701 132.267 79.3061C132.267 79.242 132.293 79.1806 132.338 79.1353C132.384 79.0899 132.445 79.0645 132.509 79.0645H135.77C135.834 79.0645 135.896 79.0899 135.941 79.1353C135.986 79.1806 136.012 79.242 136.012 79.3061C136.012 79.3701 135.986 79.4316 135.941 79.4769C135.896 79.5222 135.834 79.5476 135.77 79.5476Z" fill="white"/>
<path d="M135.77 80.4535H132.509C132.445 80.4535 132.384 80.4281 132.338 80.3828C132.293 80.3375 132.267 80.276 132.267 80.212C132.267 80.1479 132.293 80.0865 132.338 80.0412C132.384 79.9958 132.445 79.9704 132.509 79.9704H135.77C135.834 79.9706 135.895 79.9961 135.941 80.0414C135.986 80.0867 136.011 80.148 136.011 80.212C136.011 80.2759 135.986 80.3372 135.941 80.3825C135.895 80.4278 135.834 80.4533 135.77 80.4535Z" fill="white"/>
<path d="M95.0026 100.565H86.9836C86.5816 100.565 86.1961 100.405 85.9118 100.121C85.6275 99.8363 85.4676 99.4509 85.4672 99.0488V92.1035C85.4676 91.7014 85.6275 91.316 85.9118 91.0317C86.1961 90.7474 86.5816 90.5875 86.9836 90.587H95.0026C95.4046 90.5875 95.7901 90.7474 96.0744 91.0317C96.3587 91.316 96.5186 91.7014 96.5191 92.1035V99.0488C96.5186 99.4509 96.3587 99.8363 96.0744 100.121C95.7901 100.405 95.4046 100.565 95.0026 100.565Z" fill="#3737FF"/>
<path d="M128.076 94.6511H100.128C99.9457 94.6511 99.7706 94.5786 99.6415 94.4495C99.5123 94.3204 99.4398 94.1452 99.4398 93.9626C99.4398 93.7801 99.5123 93.6049 99.6415 93.4758C99.7706 93.3467 99.9457 93.2742 100.128 93.2742H128.076C128.259 93.2742 128.434 93.3467 128.563 93.4758C128.692 93.6049 128.765 93.7801 128.765 93.9626C128.765 94.1452 128.692 94.3204 128.563 94.4495C128.434 94.5786 128.259 94.6511 128.076 94.6511Z" fill="#CCCCCC"/>
<path d="M110.743 97.8782H100.128C99.9457 97.8782 99.7706 97.8056 99.6415 97.6765C99.5123 97.5474 99.4398 97.3723 99.4398 97.1897C99.4398 97.0071 99.5123 96.832 99.6415 96.7029C99.7706 96.5737 99.9457 96.5012 100.128 96.5012H110.743C110.834 96.501 110.924 96.5187 111.007 96.5532C111.091 96.5878 111.167 96.6384 111.231 96.7024C111.295 96.7663 111.346 96.8423 111.381 96.9259C111.415 97.0095 111.433 97.0992 111.433 97.1897C111.433 97.2802 111.415 97.3698 111.381 97.4535C111.346 97.5371 111.295 97.613 111.231 97.677C111.167 97.7409 111.091 97.7916 111.007 97.8261C110.924 97.8607 110.834 97.8783 110.743 97.8782Z" fill="#CCCCCC"/>
<path d="M95.0026 121.125H86.9836C86.5816 121.124 86.1961 120.964 85.9118 120.68C85.6275 120.396 85.4676 120.01 85.4672 119.608V112.663C85.4676 112.261 85.6275 111.875 85.9118 111.591C86.1961 111.307 86.5816 111.147 86.9836 111.146H95.0026C95.4046 111.147 95.7901 111.307 96.0744 111.591C96.3587 111.875 96.5186 112.261 96.5191 112.663V119.608C96.5186 120.01 96.3587 120.396 96.0744 120.68C95.7901 120.964 95.4046 121.124 95.0026 121.125Z" fill="#3737FF"/>
<path d="M128.076 115.211H100.128C99.9457 115.211 99.7706 115.138 99.6415 115.009C99.5123 114.88 99.4398 114.705 99.4398 114.522C99.4398 114.339 99.5123 114.164 99.6415 114.035C99.7706 113.906 99.9457 113.834 100.128 113.834H128.076C128.259 113.834 128.434 113.906 128.563 114.035C128.692 114.164 128.765 114.339 128.765 114.522C128.765 114.705 128.692 114.88 128.563 115.009C128.434 115.138 128.259 115.211 128.076 115.211Z" fill="#CCCCCC"/>
<path d="M110.743 118.438H100.128C99.9457 118.438 99.7706 118.365 99.6415 118.236C99.5123 118.107 99.4398 117.932 99.4398 117.749C99.4398 117.566 99.5123 117.391 99.6415 117.262C99.7706 117.133 99.9457 117.061 100.128 117.061H110.743C110.834 117.06 110.924 117.078 111.007 117.113C111.091 117.147 111.167 117.198 111.231 117.262C111.295 117.326 111.346 117.402 111.381 117.485C111.415 117.569 111.433 117.659 111.433 117.749C111.433 117.84 111.415 117.929 111.381 118.013C111.346 118.096 111.295 118.172 111.231 118.236C111.167 118.3 111.091 118.351 111.007 118.386C110.924 118.42 110.834 118.438 110.743 118.438Z" fill="#CCCCCC"/>
<path d="M95.0026 141.684H86.9836C86.5816 141.684 86.1961 141.524 85.9118 141.239C85.6275 140.955 85.4676 140.57 85.4672 140.168V133.222C85.4676 132.82 85.6275 132.435 85.9118 132.15C86.1961 131.866 86.5816 131.706 86.9836 131.706H95.0026C95.4046 131.706 95.7901 131.866 96.0744 132.15C96.3587 132.435 96.5186 132.82 96.5191 133.222V140.168C96.5186 140.57 96.3587 140.955 96.0744 141.239C95.7901 141.524 95.4046 141.684 95.0026 141.684Z" fill="#3737FF"/>
<path d="M128.076 135.77H100.128C99.9457 135.77 99.7706 135.697 99.6415 135.568C99.5123 135.439 99.4398 135.264 99.4398 135.081C99.4398 134.899 99.5123 134.724 99.6415 134.595C99.7706 134.465 99.9457 134.393 100.128 134.393H128.076C128.259 134.393 128.434 134.465 128.563 134.595C128.692 134.724 128.765 134.899 128.765 135.081C128.765 135.264 128.692 135.439 128.563 135.568C128.434 135.697 128.259 135.77 128.076 135.77Z" fill="#CCCCCC"/>
<path d="M110.743 138.997H100.128C99.9457 138.997 99.7706 138.924 99.6415 138.795C99.5123 138.666 99.4398 138.491 99.4398 138.308C99.4398 138.126 99.5123 137.951 99.6415 137.822C99.7706 137.693 99.9457 137.62 100.128 137.62H110.743C110.834 137.62 110.924 137.637 111.007 137.672C111.091 137.707 111.167 137.757 111.231 137.821C111.295 137.885 111.346 137.961 111.381 138.045C111.415 138.128 111.433 138.218 111.433 138.308C111.433 138.399 111.415 138.489 111.381 138.572C111.346 138.656 111.295 138.732 111.231 138.796C111.167 138.86 111.091 138.91 111.007 138.945C110.924 138.979 110.834 138.997 110.743 138.997Z" fill="#CCCCCC"/>
</g>
<defs>
<clipPath id="clip0">
<rect width="185.71" height="110.762" fill="white" transform="translate(7 45)"/>
</clipPath>
</defs>
</svg>
