<svg width="200" height="200" viewBox="0 0 200 200" fill="none" xmlns="http://www.w3.org/2000/svg">
<g clip-path="url(#clip0)">
<path d="M37.0273 96.0043C39.7459 96.0043 41.9498 93.8004 41.9498 91.0818C41.9498 88.3631 39.7459 86.1592 37.0273 86.1592C34.3086 86.1592 32.1047 88.3631 32.1047 91.0818C32.1047 93.8004 34.3086 96.0043 37.0273 96.0043Z" fill="#FFB8B8"/>
<path d="M20.3942 150.071L21.6406 152.188L30.4014 148.388L28.5617 145.263L20.3942 150.071Z" fill="#FFB8B8"/>
<path d="M20.7676 149.124L23.2223 153.294L23.2224 153.294C23.4278 153.643 23.5624 154.029 23.6187 154.43C23.6749 154.831 23.6516 155.239 23.55 155.631C23.4485 156.023 23.2708 156.391 23.0269 156.715C22.7831 157.038 22.478 157.31 22.129 157.516L22.0426 157.566L18.0237 150.739L20.7676 149.124Z" fill="#192027"/>
<path d="M34.8359 157.699L37.2931 157.699L38.4619 148.221L34.8355 148.222L34.8359 157.699Z" fill="#FFB8B8"/>
<path d="M34.2092 156.897L39.0481 156.897H39.0483C39.4532 156.897 39.8543 156.976 40.2284 157.131C40.6025 157.286 40.9425 157.514 41.2288 157.8C41.5152 158.086 41.7424 158.426 41.8973 158.8C42.0523 159.174 42.1321 159.575 42.1321 159.98V160.081L34.2093 160.081L34.2092 156.897Z" fill="#192027"/>
<path d="M24.9574 151.957C24.816 151.957 24.6766 151.924 24.5504 151.86C24.4242 151.796 24.3148 151.704 24.2311 151.59L21.8614 148.371C21.7891 148.273 21.7374 148.161 21.7096 148.042C21.6817 147.924 21.6782 147.801 21.6993 147.681C21.7204 147.561 21.7656 147.446 21.8322 147.344C21.8987 147.242 21.9854 147.154 22.0868 147.086L32.6317 140.043L26.269 123.313L39.8754 124.436L40.3337 138.813C40.3767 140.122 40.0629 141.419 39.4258 142.563C38.7888 143.708 37.8525 144.658 36.7171 145.311L25.408 151.836C25.2711 151.915 25.1157 151.957 24.9574 151.957Z" fill="#192027"/>
<path d="M34.9101 155.775C34.6767 155.775 34.4526 155.684 34.2849 155.522C34.1171 155.359 34.0187 155.138 34.0104 154.905L33.5118 140.899L39.6864 140.574L39.1948 154.681C39.1875 154.904 39.0973 155.117 38.9417 155.277C38.7861 155.438 38.5762 155.535 38.3531 155.549L34.9714 155.773C34.9509 155.774 34.9304 155.775 34.9101 155.775Z" fill="#192027"/>
<path d="M41.4501 127.217C39.8791 127.217 34.392 125.45 32.4871 124.821C32.2021 125.049 30.6365 126.219 28.8091 126.005C27.6816 125.873 26.6889 125.235 25.8587 124.108C24.0255 121.62 26.2898 110.95 28.5121 102.437C28.9576 100.717 30.0529 99.2357 31.5677 98.3058C33.0825 97.3759 34.8988 97.0695 36.6349 97.451C37.8931 97.7287 39.049 98.3519 39.9726 99.2504C40.8962 100.149 41.551 101.287 41.8634 102.537C42.2818 104.24 41.9219 106.244 41.659 107.707C41.5355 108.395 41.4379 108.938 41.4713 109.205C41.6002 110.237 42.3168 126.419 41.8561 127.111C41.807 127.184 41.6651 127.217 41.4501 127.217Z" fill="#D43232"/>
<path d="M35.7031 127.246C35.9556 127.058 36.1638 126.817 36.313 126.54C36.4623 126.263 36.5489 125.956 36.5669 125.642C36.5849 125.328 36.5338 125.013 36.4172 124.721C36.3005 124.429 36.1212 124.166 35.8918 123.95L35.9891 104.34L31.3704 105.109L32.7271 124.143C32.3906 124.553 32.2158 125.071 32.2361 125.601C32.2563 126.13 32.4701 126.634 32.8369 127.016C33.2038 127.399 33.6981 127.634 34.2264 127.676C34.7546 127.718 35.2801 127.565 35.7031 127.246Z" fill="#FFB8B8"/>
<path d="M36.7713 116.934H31.7965C31.5589 116.933 31.3312 116.839 31.1624 116.672C30.9937 116.504 30.8975 116.278 30.8946 116.04L30.7725 102.553C30.7683 102.087 30.8565 101.624 31.0322 101.192C31.2079 100.76 31.4674 100.367 31.7959 100.036C32.1244 99.7054 32.5152 99.4427 32.9458 99.2637C33.3765 99.0846 33.8383 98.9927 34.3047 98.9933C34.771 98.9939 35.2326 99.0869 35.6628 99.267C36.093 99.4471 36.4832 99.7107 36.8109 100.043C37.1385 100.374 37.3971 100.768 37.5717 101.2C37.7464 101.633 37.8335 102.096 37.8281 102.562L37.6732 116.042C37.6696 116.279 37.5732 116.506 37.4045 116.672C37.2358 116.839 37.0085 116.933 36.7713 116.934Z" fill="#D43232"/>
<path d="M35.7739 95.9838C33.5201 95.9879 31.3939 94.2065 31.0033 91.9868C30.8635 91.1147 30.9265 90.2222 31.1876 89.3785C31.471 88.4181 31.957 87.5295 32.6129 86.7728C33.2688 86.0161 34.0793 85.4088 34.9897 84.9918C35.9002 84.5749 36.8894 84.358 37.8908 84.3557C38.8922 84.3534 39.8825 84.5659 40.7948 84.9787C41.3977 85.2516 41.9916 85.6434 42.2677 86.2449C42.5438 86.8463 42.371 87.687 41.767 87.9576C41.3724 88.1345 40.8771 88.0476 40.527 88.3015C40.0241 88.6661 40.1536 89.4421 40.3781 90.0213C40.6027 90.6005 40.8567 91.3014 40.4802 91.7955C40.1295 92.2559 39.4283 92.2417 38.876 92.0683C38.3237 91.895 37.7786 91.6048 37.2028 91.6639C36.3629 91.75 35.7594 92.5853 35.6477 93.4222C35.536 94.259 35.7989 95.0955 36.0586 95.8988L35.7739 95.9838Z" fill="#192027"/>
<path d="M58.7661 160.27H7.05754C7.00438 160.27 6.9534 160.248 6.91582 160.211C6.87823 160.173 6.85712 160.122 6.85712 160.069C6.85712 160.016 6.87823 159.965 6.91582 159.927C6.9534 159.89 7.00438 159.869 7.05754 159.869H58.7661C58.8193 159.869 58.8702 159.89 58.9078 159.927C58.9454 159.965 58.9665 160.016 58.9665 160.069C58.9665 160.122 58.9454 160.173 58.9078 160.211C58.8702 160.248 58.8193 160.27 58.7661 160.27Z" fill="#333333"/>
<path d="M189.264 127.092H60.8271C59.9503 127.091 59.1098 126.743 58.4898 126.123C57.8699 125.503 57.5211 124.662 57.5201 123.785V44.5884C57.5209 43.9461 57.7763 43.3303 58.2305 42.8761C58.6847 42.4219 59.3005 42.1664 59.9428 42.1657H190.107C190.76 42.1664 191.387 42.4263 191.849 42.8884C192.311 43.3504 192.571 43.9769 192.571 44.6303V123.785C192.57 124.662 192.222 125.503 191.602 126.123C190.982 126.743 190.141 127.091 189.264 127.092Z" fill="#2A2A2A"/>
<path d="M185.112 122.917H65.4115C63.6568 122.917 62.2293 121.58 62.2293 119.937V50.9715C62.2293 49.7529 63.2871 48.7615 64.5874 48.7615H185.897C187.219 48.7615 188.294 49.7693 188.294 51.0079V119.937C188.294 121.58 186.866 122.917 185.112 122.917Z" fill="#252525"/>
<path d="M192.525 45.0005H57.4738V43.3169C57.475 42.4373 57.8252 41.594 58.4474 40.9722C59.0696 40.3504 59.9131 40.0007 60.7927 40H189.206C190.086 40.0007 190.93 40.3503 191.552 40.9722C192.174 41.594 192.524 42.4373 192.525 43.3169V45.0005Z" fill="#102030"/>
<path d="M63.5055 43.3637C63.9796 43.3637 64.364 42.9794 64.364 42.5053C64.364 42.0311 63.9796 41.6468 63.5055 41.6468C63.0314 41.6468 62.647 42.0311 62.647 42.5053C62.647 42.9794 63.0314 43.3637 63.5055 43.3637Z" fill="white"/>
<path d="M66.7641 43.3637C67.2383 43.3637 67.6226 42.9794 67.6226 42.5053C67.6226 42.0311 67.2383 41.6468 66.7641 41.6468C66.29 41.6468 65.9056 42.0311 65.9056 42.5053C65.9056 42.9794 66.29 43.3637 66.7641 43.3637Z" fill="white"/>
<path d="M70.0227 43.3637C70.4968 43.3637 70.8812 42.9794 70.8812 42.5053C70.8812 42.0311 70.4968 41.6468 70.0227 41.6468C69.5485 41.6468 69.1642 42.0311 69.1642 42.5053C69.1642 42.9794 69.5485 43.3637 70.0227 43.3637Z" fill="white"/>
<path d="M122.422 63.841H99.0111C98.6621 63.841 98.3274 63.7023 98.0806 63.4555C97.8338 63.2087 97.6951 62.874 97.6951 62.525C97.6951 62.1759 97.8338 61.8412 98.0806 61.5944C98.3274 61.3476 98.6621 61.209 99.0111 61.209H122.422C122.771 61.209 123.106 61.3476 123.352 61.5944C123.599 61.8412 123.738 62.1759 123.738 62.525C123.738 62.874 123.599 63.2087 123.352 63.4555C123.106 63.7023 122.771 63.841 122.422 63.841Z" fill="#CCCCCC"/>
<path d="M151.512 63.841H128.101C127.752 63.841 127.418 63.7023 127.171 63.4555C126.924 63.2087 126.785 62.874 126.785 62.525C126.785 62.1759 126.924 61.8412 127.171 61.5944C127.418 61.3476 127.752 61.209 128.101 61.209H151.512C151.861 61.209 152.196 61.3476 152.443 61.5944C152.69 61.8412 152.828 62.1759 152.828 62.525C152.828 62.874 152.69 63.2087 152.443 63.4555C152.196 63.7023 151.861 63.841 151.512 63.841Z" fill="#CCCCCC"/>
<path d="M151.512 68.8279H110.786C110.437 68.8279 110.102 68.6892 109.855 68.4424C109.608 68.1956 109.47 67.8609 109.47 67.5119C109.47 67.1628 109.608 66.8281 109.855 66.5813C110.102 66.3345 110.437 66.1959 110.786 66.1959H151.512C151.861 66.1959 152.196 66.3345 152.443 66.5813C152.69 66.8281 152.828 67.1628 152.828 67.5119C152.828 67.8609 152.69 68.1956 152.443 68.4424C152.196 68.6892 151.861 68.8279 151.512 68.8279Z" fill="#CCCCCC"/>
<path d="M122.422 58.7848H99.0111C98.6623 58.7843 98.328 58.6455 98.0816 58.3988C97.8351 58.152 97.6967 57.8175 97.6967 57.4688C97.6967 57.1201 97.8351 56.7856 98.0816 56.5388C98.328 56.2921 98.6623 56.1532 99.0111 56.1528H122.422C122.595 56.1526 122.766 56.1865 122.926 56.2525C123.086 56.3185 123.231 56.4154 123.353 56.5377C123.476 56.6599 123.573 56.805 123.639 56.9648C123.705 57.1246 123.739 57.2958 123.739 57.4688C123.739 57.6417 123.705 57.813 123.639 57.9728C123.573 58.1325 123.476 58.2777 123.353 58.3999C123.231 58.5221 123.086 58.619 122.926 58.6851C122.766 58.7511 122.595 58.785 122.422 58.7848Z" fill="#CCCCCC"/>
<path d="M135.305 58.854H128.656C128.306 58.854 127.972 58.7154 127.725 58.4686C127.478 58.2218 127.34 57.8871 127.34 57.5381C127.34 57.189 127.478 56.8543 127.725 56.6075C127.972 56.3607 128.306 56.2221 128.656 56.2221H135.305C135.654 56.2221 135.988 56.3607 136.235 56.6075C136.482 56.8543 136.621 57.189 136.621 57.5381C136.621 57.8871 136.482 58.2218 136.235 58.4686C135.988 58.7154 135.654 58.854 135.305 58.854Z" fill="#CCCCCC"/>
<path d="M105.66 68.8279H99.0111C98.6623 68.8274 98.328 68.6886 98.0816 68.4418C97.8351 68.1951 97.6967 67.8606 97.6967 67.5119C97.6967 67.1631 97.8351 66.8286 98.0816 66.5819C98.328 66.3351 98.6623 66.1963 99.0111 66.1959H105.66C105.833 66.1957 106.005 66.2295 106.164 66.2956C106.324 66.3616 106.47 66.4585 106.592 66.5807C106.714 66.703 106.811 66.8481 106.878 67.0079C106.944 67.1677 106.978 67.3389 106.978 67.5119C106.978 67.6848 106.944 67.8561 106.878 68.0158C106.811 68.1756 106.714 68.3208 106.592 68.443C106.47 68.5652 106.324 68.6621 106.164 68.7281C106.005 68.7942 105.833 68.8281 105.66 68.8279Z" fill="#CCCCCC"/>
<path d="M122.422 110.539H99.0111C98.6621 110.539 98.3274 110.4 98.0806 110.154C97.8338 109.907 97.6951 109.572 97.6951 109.223C97.6951 108.874 97.8338 108.539 98.0806 108.292C98.3274 108.046 98.6621 107.907 99.0111 107.907H122.422C122.595 107.907 122.766 107.941 122.926 108.007C123.085 108.073 123.23 108.17 123.352 108.292C123.475 108.415 123.572 108.56 123.638 108.719C123.704 108.879 123.738 109.05 123.738 109.223C123.738 109.396 123.704 109.567 123.638 109.727C123.572 109.886 123.475 110.031 123.352 110.154C123.23 110.276 123.085 110.373 122.926 110.439C122.766 110.505 122.595 110.539 122.422 110.539Z" fill="#CCCCCC"/>
<path d="M151.512 110.539H128.101C127.752 110.539 127.418 110.4 127.171 110.154C126.924 109.907 126.785 109.572 126.785 109.223C126.785 108.874 126.924 108.539 127.171 108.292C127.418 108.046 127.752 107.907 128.101 107.907H151.512C151.685 107.907 151.856 107.941 152.016 108.007C152.176 108.073 152.321 108.17 152.443 108.292C152.565 108.415 152.662 108.56 152.728 108.719C152.794 108.879 152.828 109.05 152.828 109.223C152.828 109.396 152.794 109.567 152.728 109.727C152.662 109.886 152.565 110.031 152.443 110.154C152.321 110.276 152.176 110.373 152.016 110.439C151.856 110.505 151.685 110.539 151.512 110.539Z" fill="#CCCCCC"/>
<path d="M151.512 115.526H110.786C110.437 115.526 110.102 115.387 109.855 115.14C109.608 114.894 109.47 114.559 109.47 114.21C109.47 113.861 109.608 113.526 109.855 113.279C110.102 113.033 110.437 112.894 110.786 112.894H151.512C151.685 112.894 151.857 112.928 152.016 112.994C152.176 113.06 152.321 113.157 152.444 113.279C152.566 113.401 152.663 113.546 152.73 113.706C152.796 113.866 152.83 114.037 152.83 114.21C152.83 114.383 152.796 114.554 152.73 114.714C152.663 114.874 152.566 115.019 152.444 115.141C152.321 115.263 152.176 115.36 152.016 115.426C151.857 115.492 151.685 115.526 151.512 115.526Z" fill="#CCCCCC"/>
<path d="M122.422 105.483H99.0111C98.6621 105.483 98.3274 105.344 98.0806 105.097C97.8338 104.851 97.6951 104.516 97.6951 104.167C97.6951 103.818 97.8338 103.483 98.0806 103.236C98.3274 102.99 98.6621 102.851 99.0111 102.851H122.422C122.771 102.851 123.106 102.99 123.352 103.236C123.599 103.483 123.738 103.818 123.738 104.167C123.738 104.516 123.599 104.851 123.352 105.097C123.106 105.344 122.771 105.483 122.422 105.483Z" fill="#CCCCCC"/>
<path d="M135.305 105.552H128.656C128.306 105.552 127.972 105.413 127.725 105.167C127.478 104.92 127.34 104.585 127.34 104.236C127.34 103.887 127.478 103.552 127.725 103.306C127.972 103.059 128.306 102.92 128.656 102.92H135.305C135.654 102.92 135.988 103.059 136.235 103.306C136.482 103.552 136.621 103.887 136.621 104.236C136.621 104.585 136.482 104.92 136.235 105.167C135.988 105.413 135.654 105.552 135.305 105.552Z" fill="#CCCCCC"/>
<path d="M105.66 115.526H99.0111C98.6621 115.526 98.3274 115.387 98.0806 115.14C97.8338 114.894 97.6951 114.559 97.6951 114.21C97.6951 113.861 97.8338 113.526 98.0806 113.279C98.3274 113.033 98.6621 112.894 99.0111 112.894H105.66C105.833 112.894 106.005 112.928 106.164 112.994C106.324 113.06 106.47 113.157 106.592 113.279C106.714 113.401 106.811 113.546 106.878 113.706C106.944 113.866 106.978 114.037 106.978 114.21C106.978 114.383 106.944 114.554 106.878 114.714C106.811 114.874 106.714 115.019 106.592 115.141C106.47 115.263 106.324 115.36 106.164 115.426C106.005 115.492 105.833 115.526 105.66 115.526Z" fill="#CCCCCC"/>
<path d="M116.308 96.4108C115.811 96.4119 115.334 96.2167 114.98 95.8676L106.18 87.1775C106.007 87.0069 105.87 86.8037 105.777 86.5797C105.683 86.3556 105.635 86.1152 105.635 85.8724C105.635 85.6296 105.683 85.3892 105.777 85.1652C105.87 84.9412 106.007 84.738 106.18 84.5674L114.945 75.9123C115.31 75.5535 115.802 75.3532 116.314 75.3548C116.826 75.3564 117.316 75.5598 117.679 75.9209C118.042 76.285 118.246 76.7782 118.246 77.2925C118.246 77.8067 118.042 78.3 117.679 78.664L111.166 85.177C110.963 85.3804 110.849 85.656 110.849 85.9433C110.849 86.2306 110.963 86.5062 111.166 86.7096L117.644 93.1872C117.908 93.4512 118.089 93.7878 118.162 94.1543C118.235 94.5208 118.197 94.9007 118.054 95.246C117.911 95.5912 117.669 95.8862 117.358 96.0935C117.047 96.3009 116.682 96.4113 116.308 96.4108V96.4108Z" fill="#D43232"/>
<path d="M130.33 96.4108C129.957 96.4113 129.591 96.3009 129.28 96.0935C128.969 95.8862 128.727 95.5912 128.584 95.246C128.441 94.9007 128.403 94.5208 128.476 94.1543C128.549 93.7878 128.73 93.4512 128.994 93.1872L135.472 86.7096C135.675 86.5062 135.789 86.2306 135.789 85.9433C135.789 85.656 135.675 85.3804 135.472 85.177L128.959 78.664C128.779 78.4839 128.636 78.2701 128.538 78.0348C128.441 77.7994 128.391 77.5472 128.391 77.2925C128.391 77.0378 128.441 76.7855 128.538 76.5502C128.636 76.3149 128.779 76.101 128.959 75.9209C129.322 75.5598 129.812 75.3564 130.324 75.3548C130.836 75.3531 131.328 75.5535 131.693 75.9123L140.458 84.5674C140.631 84.738 140.768 84.9412 140.862 85.1652C140.955 85.3892 141.003 85.6296 141.003 85.8724C141.003 86.1152 140.955 86.3556 140.862 86.5797C140.768 86.8037 140.631 87.0069 140.458 87.1775L131.658 95.8676C131.304 96.2166 130.827 96.4119 130.33 96.4108Z" fill="#D43232"/>
</g>
<defs>
<clipPath id="clip0">
<rect width="185.714" height="120.27" fill="white" transform="translate(6.85712 40)"/>
</clipPath>
</defs>
</svg>
